<?xml version="1.0" encoding="utf-8"?>
<!-- Generator: Adobe Illustrator 27.3.1, SVG Export Plug-In . SVG Version: 6.00 Build 0)  -->
<svg version="1.1" id="Layer_1" xmlns="http://www.w3.org/2000/svg" xmlns:xlink="http://www.w3.org/1999/xlink" x="0px" y="0px"
	 viewBox="0 0 714 714" style="enable-background:new 0 0 714 714;" xml:space="preserve">
<style type="text/css">
	.st0{fill:#F2F2F2;}
	.st1{fill:#DCEEFF;}
	.st2{fill:#88ADE2;}
	.st3{fill:#9CBDEF;}
	.st4{fill:#B8DFFF;}
	.st5{fill:#FFFFFF;}
	.st6{fill:#F76861;}
	.st7{fill:#E54C4C;}
	.st8{fill:#EDAE48;}
	.st9{fill:#E29C37;}
	.st10{fill:#FCE875;}
	.st11{fill:#EFD865;}
	.st12{fill:#9BE265;}
	.st13{fill:#84CE45;}
	.st14{fill:#7DD7FB;}
	.st15{fill:#5FC1E0;}
	.st16{fill:#3B78F5;}
	.st17{fill:#1E59C1;}
	.st18{fill:#8F74F6;}
	.st19{fill:#6350D3;}
	.st20{fill:#E2C849;}
	.st21{fill:#E24747;}
	.st22{fill:#D89027;}
	.st23{fill:#EAD25E;}
	.st24{fill:#88D346;}
	.st25{fill:#5AC5E5;}
	.st26{fill:#2466DD;}
	.st27{fill:#7B67F4;}
	.st28{fill:#F9ECAF;}
	.st29{fill:#A9D7F7;}
	.st30{fill:#D9EEFC;}
	.st31{fill:#75A1EF;}
	.st32{fill:#808080;}
	.st33{fill:#F4AEAE;}
	.st34{fill:#EF6359;}
	.st35{fill:#4D4D4D;}
	.st36{fill:#F7A623;}
	.st37{fill:#FCE5C5;}
	.st38{fill:#3C7AD3;}
	.st39{fill:#94C9ED;}
</style>
<g>
	<path d="M469.4638672,484.6694336c0-44.5605469-26.3193359-84.9238281-67.0810547-102.9238281V104.7016602
		c0-25.0244141-20.3583984-45.3828125-45.3828125-45.3828125s-45.3828125,20.3583984-45.3828125,45.3828125v277.0439453
		c-40.7617188,18-67.0810547,58.3632812-67.0810547,102.9238281c0,27.7412109,10.1894531,54.3828125,28.6894531,75.0244141
		c0.390625,0.9267578,0.8212891,1.8554688,1.28125,2.7636719c0.5068359,6.7529297,2.3603516,12.4589844,5.6630859,17.4384766
		c0.0634766,0.0966797,0.1386719,0.2177734,0.2246094,0.3564453l0.1044922,0.1660156
		c2.2646484,3.6259766,6.9775391,11.1699219,15.0419922,12.3632812c1.09375,0.1601562,2.1845703,0.2421875,3.2421875,0.2421875
		c3.5029297,0,6.6962891-0.8310547,9.7373047-2.5371094c0.0966797,1.2636719,0.1279297,2.6591797,0.1435547,4.3837891
		c-0.0185547,0.4511719-0.2753906,1.9150391-0.4287109,2.7910156c-1.0751953,6.140625-3.9306641,22.4541016,11.3876953,27.7900391
		l4.0214844,1.4013672l3.8613281-1.7958984c4.5390625-2.1113281,8.2548828-4.7109375,11.0693359-7.7402344
		c-0.6513672,11.4355469,4.1367188,18.7412109,14.2480469,21.7255859l5.3740234,1.5859375l4.3085938-3.5800781
		c4.5595703-3.7890625,8.2294922-7.9521484,10.9296875-12.3974609l0.0009766,0.1279297
		c-0.0361328,0.3349609-0.1484375,1.0507812-0.2333984,1.5888672c-0.8056641,5.1474609-2.3046875,14.7285156,3.78125,21.8710938
		c2.4833984,2.9140625,7.1445312,6.3945312,15.2451172,6.4277344l3.6210938,0.0146484l2.8603516-2.2216797
		c12.8769531-9.9970703,11.3574219-23.8730469,10.4501953-32.1640625c-0.0820312-0.7470703-0.1611328-1.4794922-0.2285156-2.1914062
		c-0.0341797-0.3505859-0.0800781-0.7050781-0.1386719-1.0673828c0.8574219,0.3066406,1.7519531,0.5527344,2.6699219,0.7333984
		c1.5761719,0.3115234,3.1386719,0.4697266,4.6435547,0.4697266c6.6005859,0,18.1005859-2.9257812,20.9589844-22.5195312
		l0.0791016-0.5322266c1.8867188-9.7373047,2.6982422-19.1503906,2.4804688-28.7734375l-0.0068359-0.2285156
		c0.7246094-2.3642578,1.234375-4.6806641,1.515625-6.8886719
		C459.4042969,538.7299805,469.4638672,512.2329102,469.4638672,484.6694336z M440.1806641,558.8657227l-0.0185547,0.1552734
		c-0.2734375,2.2197266-0.7851562,4.5585938-1.5224609,6.9492188l-0.0253906,0.0810547l0.0117188,0.3847656
		c0.2158203,9.5527344-0.5898438,18.8955078-2.4648438,28.5742188l-0.0839844,0.5644531
		c-2.75,18.8505859-13.6923828,21.6650391-19.9707031,21.6650391c-1.4394531,0-2.9365234-0.1513672-4.4492188-0.4501953
		c-1.1601562-0.2285156-2.2792969-0.5664062-3.3251953-1.0048828l-0.8779297-0.3681641l0.1953125,0.9316406
		c0.1357422,0.6503906,0.2304688,1.2558594,0.2871094,1.8505859c0.0673828,0.7167969,0.1484375,1.453125,0.2304688,2.2060547
		c0.8847656,8.0830078,2.3662109,21.6103516-10.0693359,31.265625l-2.5888672,2.0087891l-3.2753906-0.0126953
		c-7.7207031-0.03125-12.1396484-3.3212891-14.4873047-6.0761719c-5.7880859-6.7929688-4.3349609-16.0791016-3.5546875-21.0673828
		c0.0869141-0.5527344,0.2011719-1.2900391,0.2421875-1.6933594l-0.0400391-3.9248047l-0.9150391,1.671875
		c-2.7011719,4.9345703-6.6083984,9.5449219-11.6113281,13.7021484l-3.8984375,3.2402344l-4.8623047-1.4355469
		c-10.0234375-2.9580078-14.5390625-10.4189453-13.4208984-22.1757812l0.1533203-1.6201172l-1.0371094,1.2548828
		c-2.8144531,3.4033203-6.7568359,6.2998047-11.7177734,8.6083984l-3.4941406,1.6240234l-3.6386719-1.2666016
		c-14.5146484-5.0566406-11.765625-20.7617188-10.7314453-26.6738281c0.2138672-1.2177734,0.4238281-2.4453125,0.4443359-2.9482422
		c-0.0195312-2.1396484-0.0625-3.7695312-0.21875-5.28125l-0.0810547-0.7871094l-0.6757812,0.4121094
		c-3.0859375,1.8798828-6.3261719,2.7939453-9.9052734,2.7939453c-1.0097656,0-2.0507812-0.078125-3.0957031-0.2324219
		c-7.6074219-1.125-12.1552734-8.4042969-14.3408203-11.9033203l-0.1025391-0.1650391
		c-0.0917969-0.1464844-0.1708984-0.2734375-0.2392578-0.3779297c-3.2236328-4.859375-5.0253906-10.4394531-5.5078125-17.0605469
		l-0.0537109-0.1914062c-0.4794922-0.9404297-0.9257812-1.9033203-1.328125-2.8642578l-0.0888672-0.140625
		c-18.3720703-20.4667969-28.4902344-46.8955078-28.4902344-74.4189453c0-44.2724609,26.2138672-84.3652344,66.78125-102.1396484
		l0.2998047-0.1308594V104.7016602c0-24.4726562,19.9101562-44.3828125,44.3828125-44.3828125
		s44.3828125,19.9101562,44.3828125,44.3828125v277.6972656l0.2998047,0.1308594
		c40.5673828,17.7744141,66.78125,57.8671875,66.78125,102.1396484c0,27.3701172-10.0078125,53.6787109-28.1787109,74.0791016
		L440.1806641,558.8657227z"/>
	<path d="M392.3828125,388.4897461v-283.78125c0-19.5097656-15.8730469-35.3828125-35.3828125-35.3828125
		s-35.3828125,15.8730469-35.3828125,35.3828125v74.6503906l-1.3574219,0.1220703l0.0009766,0.9960938l1.3564453,0.1210938
		v207.8916016c-40.1367188,14.7714844-67.0810547,53.3808594-67.0810547,96.1865234
		c0,0.8105469,0.0095215,1.6196289,0.0284424,2.4272461c0.0079346,0.3393555,0.024353,0.6772461,0.0356445,1.0161133
		c0.015564,0.46875,0.0274658,0.9375,0.0493774,1.4052734c0.0165405,0.3530273,0.041748,0.7045898,0.0618896,1.0571289
		c0.0258179,0.4511719,0.0477295,0.9033203,0.0794067,1.3535156c0.0316772,0.4506836,0.0730591,0.8994141,0.1106567,1.3486328
		c0.0292969,0.3505859,0.0535889,0.7021484,0.0864258,1.0522461c0.0565186,0.6015625,0.123291,1.2011719,0.1903076,1.8007812
		c0.0218506,0.1958008,0.0391846,0.3925781,0.0621948,0.5878906c0.0743408,0.6328125,0.1589966,1.2631836,0.2449341,1.8930664
		c0.0220947,0.1621094,0.0402222,0.3251953,0.0630493,0.4868164c0.0939941,0.6650391,0.1981201,1.328125,0.3049927,1.9907227
		c0.0202026,0.125,0.0371094,0.2509766,0.0577393,0.3759766c0.1079712,0.6538086,0.2260132,1.3046875,0.3464966,1.9555664
		c0.0246582,0.1328125,0.0458374,0.2670898,0.0709839,0.3999023c0.2855225,1.5078125,0.6063843,3.0068359,0.9586182,4.4970703
		c0.0132446,0.0561523,0.0247192,0.112793,0.0380859,0.168457c0.1761475,0.7397461,0.3615723,1.4765625,0.5540161,2.2114258
		c0.008606,0.0327148,0.0161743,0.065918,0.0248413,0.0986328c0.3981934,1.5141602,0.831665,3.0175781,1.2984619,4.5097656
		c0.0065308,0.0209961,0.0124512,0.0424805,0.019043,0.0629883c0.2307739,0.7363281,0.4705811,1.4692383,0.7178955,2.1992188
		c0.0068359,0.0205078,0.0130615,0.0410156,0.0199585,0.0615234c0.2455444,0.7236328,0.5001221,1.4438477,0.7619019,2.1616211
		c0.0097656,0.0263672,0.0186157,0.0537109,0.0283813,0.0805664c0.2677002,0.7319336,0.5442505,1.4609375,0.8286743,2.1865234
		c0.0044556,0.0117188,0.008606,0.0229492,0.0131226,0.034668c0.2739868,0.6982422,0.5570068,1.3930664,0.8463745,2.0854492
		c0.0164185,0.0390625,0.0316772,0.0791016,0.0481567,0.1181641c0.2943115,0.7016602,0.5974731,1.3994141,0.9075317,2.0947266
		c0.0126953,0.0283203,0.0244751,0.0571289,0.0372314,0.0854492c0.305481,0.6831055,0.619812,1.3623047,0.9403687,2.0385742
		c0.019104,0.0405273,0.0369873,0.0810547,0.0562134,0.121582c0.3186035,0.6699219,0.6461182,1.3359375,0.9794922,1.9990234
		c0.0229492,0.0458984,0.0444946,0.0922852,0.0675049,0.1376953c0.3174438,0.6289062,0.6437378,1.2539062,0.9743652,1.8764648
		c0.0421143,0.0795898,0.0820312,0.1601562,0.1243896,0.2392578c0.3330078,0.6230469,0.6748047,1.2421875,1.0209961,1.8588867
		c0.0426636,0.0756836,0.0831299,0.152832,0.1259766,0.2290039c0.3387451,0.5996094,0.6864624,1.1953125,1.0377197,1.7890625
		c0.0541382,0.0913086,0.1057739,0.184082,0.1602173,0.2753906c0.3396606,0.5703125,0.6883545,1.1352539,1.0394287,1.6992188
		c0.0702515,0.112793,0.1375732,0.2275391,0.208313,0.3398438c0.3469849,0.5527344,0.7028198,1.1000977,1.06073,1.6464844
		c0.0792847,0.1210938,0.1554565,0.2436523,0.2352295,0.3642578c0.350647,0.5307617,0.710083,1.0556641,1.0710449,1.5800781
		c0.0923462,0.1342773,0.1813354,0.2705078,0.2744141,0.4042969c0.3501587,0.503418,0.7091675,1.0019531,1.0687866,1.5
		c0.109436,0.1513672,0.215271,0.3046875,0.3255005,0.4560547c0.3396606,0.4648438,0.6879272,0.9243164,1.0358887,1.3837891
		c0.1369019,0.1811523,0.2698975,0.3642578,0.4080811,0.5444336c0.3428955,0.4467773,0.6943359,0.8881836,1.0450439,1.3300781
		c0.1487427,0.1875,0.2935791,0.3774414,0.4437866,0.5639648c0.3411865,0.4238281,0.6908569,0.8422852,1.0392456,1.2612305
		c0.1671753,0.2011719,0.3304443,0.4047852,0.4993286,0.6049805c0.3319702,0.3930664,0.6721802,0.7802734,1.0105591,1.1689453
		c0.1925049,0.2211914,0.3811035,0.4453125,0.5756226,0.6650391c0.3323975,0.3754883,0.6729126,0.7451172,1.0113525,1.1162109
		c0.1983643,0.2177734,0.392334,0.4384766,0.5927124,0.6542969c0.0767822,0.2138672,0.1673584,0.4316406,0.2507935,0.6474609
		c0.0843506,0.21875,0.1624756,0.4345703,0.2533569,0.6542969c0.1032104,0.25,0.218811,0.5004883,0.3300171,0.7509766
		c0.0898438,0.2026367,0.1733398,0.4042969,0.2680664,0.6069336c0.140564,0.300293,0.2932129,0.5991211,0.4439087,0.8984375
		c0.0767212,0.1523438,0.1474609,0.3056641,0.2266846,0.4575195c0.2352295,0.4501953,0.4807739,0.8974609,0.7359619,1.3378906
		c0.1337891,4.1689453,0.7402344,9.578125,4.1318359,14.6923828c0.1279297,0.1914062,0.2871094,0.4472656,0.4755859,0.75
		c1.4707031,2.3535156,4.53125,7.2509766,8.0253906,7.7685547c0.1047363,0.0151367,0.2028809,0.0205078,0.3056641,0.0332031
		c4.9567871,0.6196289,7.7714844-1.9526367,10.2626953-4.2265625c0.2730713-0.2495117,0.5424805-0.4956055,0.8125-0.7358398
		c0.046875-0.0415039,0.0939941-0.0805664,0.1407471-0.121582c0.2313232-0.2041016,0.4632568-0.4047852,0.6990967-0.5981445
		c0.0429688-0.0351562,0.0871582-0.0673828,0.1303711-0.1020508c0.2380371-0.1914062,0.479248-0.3779297,0.7280273-0.5546875
		c0.0585938-0.0415039,0.1193848-0.0791016,0.1784668-0.1196289c0.166748-0.1147461,0.3405762-0.2211914,0.5145264-0.328125
		c0.4822998,0.2446289,0.9642334,0.4794922,1.4460449,0.7138672c0.1568604,0.0766602,0.3138428,0.1572266,0.470459,0.2324219
		c0.6602783,0.3178711,1.3179932,0.6254883,1.9691162,0.9208984c0.1220703,0.1713867,0.2336426,0.3452148,0.3481445,0.5185547
		c0.1032715,0.15625,0.2124023,0.3110352,0.3099365,0.4682617c0.119751,0.1933594,0.2269287,0.3886719,0.3381348,0.5834961
		c0.0899658,0.1577148,0.1854248,0.3139648,0.2698975,0.4726562c0.1057129,0.1982422,0.1999512,0.3989258,0.2976074,0.5986328
		c0.0765381,0.1567383,0.1584473,0.3125,0.2302246,0.4697266c0.0932617,0.2045898,0.1755371,0.4106445,0.2609863,0.6166992
		c0.064209,0.1542969,0.1335449,0.3085938,0.1934814,0.4638672c0.081665,0.2109375,0.1529541,0.4233398,0.2269287,0.6357422
		c0.0526123,0.1503906,0.1101074,0.300293,0.1589355,0.4506836c0.0717773,0.2211914,0.1337891,0.4428711,0.197998,0.6645508
		c0.0412598,0.1425781,0.0871582,0.284668,0.1254883,0.4272461c0.0615234,0.2285156,0.1137695,0.456543,0.1679688,0.6850586
		c0.0324707,0.1362305,0.0690918,0.2729492,0.0991211,0.4091797c0.0532227,0.2421875,0.0980225,0.484375,0.144043,0.7260742
		c0.0229492,0.121582,0.0500488,0.2431641,0.0712891,0.3642578c0.0466309,0.2651367,0.0856934,0.5292969,0.1245117,0.793457
		c0.0144043,0.0976562,0.0321045,0.1953125,0.0454102,0.2929688c0.0395508,0.2866211,0.0722656,0.5722656,0.1037598,0.8569336
		c0.0083008,0.0742188,0.0189209,0.1489258,0.0266113,0.222168c0.032959,0.3154297,0.0600586,0.6289062,0.0847168,0.940918
		c0.003418,0.0424805,0.0080566,0.0854492,0.0113525,0.1279297c0.1329346,1.7485352,0.1500244,3.4404297,0.1641846,5.0166016
		c0.0002441,0.0253906,0.0004883,0.0512695,0.0007324,0.0766602c0.0097656,1.1386719-0.2626953,2.6962891-0.578125,4.4990234
		c-1.0410156,5.9443359-2.4658203,14.0839844,4.8271484,16.625l0.1914062,0.0664062l0.1835938-0.0859375
		c10.7265625-4.9892578,11.7929688-11.3759766,12.8242188-17.5517578c0.5917969-3.5458984,1.1533203-6.9072266,3.4433594-10.046875
		c0.4033203,0.7685547,0.8105469,1.5341797,1.2158203,2.2978516c3.7568359,7.0751953,7.3056641,13.7587891,8.1669922,21.0166016
		c0.1308594,1.1035156-0.0244141,2.5332031-0.1884766,4.046875c-0.0646973,0.5961914-0.1323242,1.2197266-0.1853027,1.859375
		c-0.3710938,4.4775391-0.0240479,9.7402344,7.0895996,11.8398438l0.2558594,0.0751953l0.2050781-0.1699219
		c6.9121094-5.7431641,11.1738281-12.3535156,12.3242188-19.1162109c0.2802734-1.6484375,0.1445312-3.3457031,0.0136719-4.9882812
		c-0.2294922-2.8837891-0.4472656-5.6152344,1.3974609-8.1435547c13.4423828,6.0751953,13.5185547,17.8007812,13.5732422,26.3828125
		l0.0117188,1.4658203c0.0078125,0.6552734-0.1591797,1.7207031-0.3515625,2.9541016
		c-0.6357422,4.0595703-1.5947266,10.1953125,1.5126953,13.8408203c1.6347656,1.9199219,4.2167969,2.9003906,7.6738281,2.9140625
		l0.171875,0.0009766l0.1367188-0.1064453c8.4570312-6.5664062,7.4511719-15.7753906,6.6425781-23.1748047
		c-0.0869141-0.796875-0.1728516-1.5771484-0.2441406-2.3369141c-0.1132812-1.1904297-0.6875-2.8876953-1.3525391-4.8535156
		c-1.46875-4.34375-3.4804688-10.2919922-1.4355469-14.0859375c0.8974609-1.6650391,2.4726562-2.7890625,4.8115234-3.4306641
		c2.7519531,1.0957031,4.2167969,3.3554688,5.6337891,5.5419922c1.609375,2.4824219,3.2734375,5.0498047,6.7646484,5.7382812
		c3.2285156,0.6386719,5.9628906,0.1826172,8.1318359-1.3505859c4.2832031-3.0292969,5.234375-9.5498047,5.640625-12.3339844
		c0.0595703-0.4091797,0.109375-0.7460938,0.15625-0.9892578c1.7490234-9.0273438,2.5019531-17.7412109,2.3007812-26.6386719
		c-0.0117188-0.5019531-0.0577393-1.034668-0.1425781-1.6669922c0.1638184-0.4604492,0.3166504-0.9150391,0.4594727-1.3652344
		c0.0358887-0.112793,0.0654297-0.2226562,0.0999756-0.3344727c0.102417-0.3330078,0.2043457-0.6655273,0.295166-0.9926758
		c0.0469971-0.1689453,0.0855713-0.3334961,0.1292725-0.5009766c0.0695801-0.265625,0.1416016-0.5322266,0.2033691-0.7939453
		c0.0450439-0.190918,0.0812988-0.3774414,0.1223145-0.5664062c0.050293-0.2324219,0.1038818-0.4667969,0.1479492-0.6958008
		c0.0383301-0.1992188,0.0678711-0.394043,0.1013184-0.5908203c0.036377-0.2133789,0.0758057-0.4282227,0.1064453-0.6381836
		c0.029541-0.2026367,0.050415-0.4003906,0.074707-0.6005859c0.0241699-0.1977539,0.0512695-0.3974609,0.0700684-0.5927734
		c0.0196533-0.2026367,0.0307617-0.4003906,0.0447998-0.6000977c0.0130615-0.1865234,0.0291748-0.3745117,0.0372314-0.5585938
		c0.0087891-0.1982422,0.0093994-0.3920898,0.0124512-0.5869141c0.0024414-0.1479492,0.010498-0.2993164,0.0095215-0.4448242
		c0.2358398-0.2490234,0.4645996-0.5029297,0.6976318-0.7539062c0.3062744-0.3300781,0.6151123-0.6577148,0.916626-0.9912109
		c0.2438965-0.2695312,0.4812012-0.543457,0.722168-0.8154297c0.3034668-0.3422852,0.609375-0.6831055,0.9077148-1.0292969
		c0.2312012-0.2680664,0.4559326-0.5400391,0.684082-0.8105469c0.2998047-0.3544922,0.6021729-0.7080078,0.8967285-1.0664062
		c0.2231445-0.2714844,0.4394531-0.546875,0.6594238-0.8203125c0.2912598-0.3613281,0.585083-0.7216797,0.8710938-1.0869141
		c0.2163086-0.2763672,0.4260254-0.5566406,0.6392822-0.8349609c0.2821045-0.3681641,0.5667725-0.734375,0.8435059-1.1054688
		c0.204834-0.2749023,0.4029541-0.5537109,0.6048584-0.8300781c0.2773438-0.3798828,0.5570068-0.7583008,0.8287354-1.1416016
		c0.1934814-0.2729492,0.3804932-0.5498047,0.571167-0.8242188c0.2717285-0.3911133,0.5458984-0.78125,0.8117676-1.1757812
		c0.1870117-0.2773438,0.3671875-0.5581055,0.5511475-0.8369141c0.2614746-0.3964844,0.5255127-0.7915039,0.7811279-1.190918
		c0.1796875-0.2807617,0.3525391-0.5649414,0.5292969-0.847168c0.2521973-0.402832,0.5068359-0.8041992,0.7532959-1.2099609
		c0.1719971-0.2832031,0.3371582-0.5703125,0.5063477-0.8549805c0.2427979-0.4086914,0.487915-0.8164062,0.7247314-1.2280273
		c0.1660156-0.2885742,0.3251953-0.5810547,0.4882812-0.8710938c0.2316895-0.4121094,0.4659424-0.8232422,0.6917725-1.2382812
		c0.1590576-0.2924805,0.3111572-0.5883789,0.4674072-0.8823242c0.2216797-0.4174805,0.4459229-0.8334961,0.6616211-1.253418
		c0.1542969-0.300293,0.3013916-0.6040039,0.4526367-0.90625c0.2087402-0.4165039,0.4202881-0.831543,0.6231689-1.2509766
		c0.1517334-0.3134766,0.2960205-0.6303711,0.444458-0.9453125c0.1943359-0.4125977,0.3918457-0.8237305,0.5808105-1.2387695
		c0.1442871-0.3173828,0.28125-0.6381836,0.4223633-0.956543c0.184082-0.4160156,0.3713379-0.8310547,0.5498047-1.2490234
		c0.1365967-0.3203125,0.265625-0.644043,0.3990479-0.9658203c0.1745605-0.4208984,0.3522949-0.8408203,0.5211182-1.2641602
		c0.1264648-0.3168945,0.2451172-0.6367188,0.3682861-0.9545898c0.1671143-0.4316406,0.3371582-0.8618164,0.498291-1.2954102
		c0.1190186-0.3203125,0.2303467-0.6435547,0.3463135-0.965332c0.1564941-0.4345703,0.3161621-0.8681641,0.4667969-1.3046875
		c0.1132812-0.3286133,0.21875-0.6601562,0.3286133-0.9897461c0.1442871-0.4326172,0.291748-0.8642578,0.4301758-1.2988281
		c0.1091309-0.3427734,0.210083-0.6879883,0.3155518-1.0317383c0.1304932-0.425293,0.2645264-0.8491211,0.3895264-1.2763672
		c0.1040039-0.3554688,0.199585-0.7133789,0.2995605-1.0698242c0.1174316-0.418457,0.2387695-0.8354492,0.3508301-1.2553711
		c0.0960693-0.3598633,0.1838379-0.7226562,0.2758789-1.0834961c0.1074219-0.4204102,0.2185059-0.8393555,0.3203125-1.2612305
		c0.0878906-0.3637695,0.1672363-0.7294922,0.2512207-1.0942383c0.0968018-0.4213867,0.1976318-0.8413086,0.2893066-1.2641602
		c0.0830078-0.3828125,0.1571045-0.7675781,0.2355957-1.1518555c0.0834961-0.4077148,0.1711426-0.8139648,0.2496338-1.2226562
		c0.0782471-0.4082031,0.1474609-0.8183594,0.2208252-1.2275391c0.0693359-0.3867188,0.1433105-0.7724609,0.208252-1.1601562
		c0.0726318-0.4331055,0.1357422-0.8686523,0.2027588-1.3032227c0.0566406-0.3666992,0.118042-0.7324219,0.1707764-1.1005859
		c0.0654297-0.4575195,0.1210938-0.9169922,0.1806641-1.3754883c0.0447998-0.3466797,0.0947266-0.6923828,0.1359863-1.0395508
		c0.0563965-0.4731445,0.1027832-0.9477539,0.1525879-1.4223633c0.0351562-0.3354492,0.0756836-0.6704102,0.107666-1.0068359
		c0.0455322-0.4794922,0.0810547-0.9609375,0.1199951-1.4418945c0.0269775-0.3330078,0.0592041-0.6645508,0.0828857-0.9975586
		c0.0369873-0.5200195,0.0634766-1.0415039,0.0927734-1.5629883c0.0166016-0.2958984,0.0383301-0.590332,0.0524902-0.8867188
		c0.0311279-0.6577148,0.0516357-1.3173828,0.0703125-1.9775391c0.0046387-0.1601562,0.0131836-0.3203125,0.0170898-0.480957
		c0.0195312-0.8217773,0.0292969-1.6450195,0.0292969-2.4692383
		C459.4638672,441.8706055,432.5195312,403.2612305,392.3828125,388.4897461z M262.6328125,496.6352539h0.0009155
		c0,0.0004883,0.000061,0.0004883,0.000061,0.0009766l0.0205078,0.5341797
		c0.0499268,1.0854492,0.1272583,2.2241211,0.2244873,3.3813477c0.0092773,0.1113281,0.0158691,0.2192383,0.0255127,0.3305664
		h0.000061l0.0575562,0.6582031c0.1181641,1.2626953,0.2568359,2.4931641,0.4111328,3.6552734h0.0006104
		c0.0001221,0.0009766,0.0002441,0.0019531,0.0003662,0.0029297l0.078125,0.5527344
		c0.1894531,1.3642578,0.3837891,2.59375,0.59375,3.7568359h0.0005493l0.0248413,0.1337891
		c0.2207031,1.2148438,0.4707031,2.4423828,0.7646484,3.7519531l0.0703125,0.3164062
		c0.0039062,0.0175781,0.0078125,0.0361328,0.0117188,0.0537109c0.1152954,0.5048828,0.2400513,1.0195312,0.369751,1.5415039
		c0.0147095,0.059082,0.0269165,0.1147461,0.0418091,0.1743164c0.151062,0.6030273,0.3123169,1.2216797,0.4868774,1.8652344
		l0.1328125,0.4873047c0.000061,0.0004883,0.0001831,0.0004883,0.0002441,0.0009766h-0.0002441
		c0.3320312,1.2001953,0.6865234,2.3916016,1.0527344,3.5390625l0.1386719,0.4238281
		c0.4208984,1.2958984,0.828125,2.4716797,1.2392578,3.5800781l0.0371094,0.1005859
		c0.90625,2.4394531,1.9365234,4.890625,3.0634766,7.2832031l0.0011597-0.0004883
		c0.0126953,0.0268555,0.0232544,0.0537109,0.0359497,0.0805664l0.0771484,0.1640625
		c0.5322266,1.1220703,1.1044922,2.2685547,1.7001953,3.4042969l0.1279297,0.2441406
		c0.3675537,0.6962891,0.7427368,1.3793945,1.1201782,2.0537109c0.043335,0.0776367,0.0854492,0.1591797,0.1288452,0.2363281
		c0.2128906,0.3769531,0.4238281,0.7470703,0.6337891,1.1074219c0.0003052,0,0.0004883,0.0004883,0.0006714,0.0004883
		l0.005188,0.0092773c0.6670532,1.1450195,1.3637085,2.2841797,2.0845337,3.409668
		c0.1755371,0.2739258,0.3667603,0.5410156,0.5454102,0.8139648c0.5499878,0.8393555,1.100708,1.6796875,1.6747437,2.4980469
		v0.0009766c0.0058594,0.0087891,0.0117188,0.0166016,0.0175781,0.0244141l0.0007935-0.0004883
		c0.0071411,0.0102539,0.0135498,0.0205078,0.0206909,0.0307617c0,0.0009766,0.0009766,0.0009766,0.0009766,0.0019531
		c0.0097656,0.0146484,0.0205078,0.0283203,0.0302734,0.0429688c0.1047363,0.1489258,0.2125244,0.2944336,0.3181763,0.4423828
		c0.2060547,0.2890625,0.4110107,0.5791016,0.6203003,0.8652344c0.0023804,0.3671875,0.0270386,0.7480469,0.062439,1.1352539
		c0.0090332,0.0991211,0.0215454,0.2001953,0.0327148,0.3007812c0.0440674,0.394043,0.1021729,0.796875,0.1793213,1.2104492
		c0.0100098,0.0532227,0.0164185,0.1044922,0.0269775,0.1586914c0.06604,0.3369141,0.1427612,0.6796875,0.2304077,1.0288086
		c-0.2887573-0.324707-0.5806885-0.6474609-0.8648071-0.9755859c-0.4849854-0.5595703-0.9656982-1.1220703-1.4373779-1.690918
		c-0.5337524-0.644043-1.0559082-1.2954102-1.5724487-1.9506836c-0.4558716-0.578125-0.9088745-1.1582031-1.3512573-1.7451172
		c-0.5010986-0.6645508-0.9890747-1.3374023-1.4727173-2.0126953c-0.4271851-0.5966797-0.8528442-1.1938477-1.2662964-1.7988281
		c-0.4686279-0.6850586-0.9226685-1.3789062-1.3735962-2.0742188c-0.3970947-0.612793-0.7940063-1.2250977-1.1772461-1.8452148
		c-0.4362793-0.7055664-0.8562012-1.4204102-1.2744751-2.1357422c-0.366394-0.6264648-0.7340088-1.2524414-1.0864868-1.8862305
		c-0.4035645-0.7260742-0.7892456-1.4604492-1.1743774-2.1953125c-0.3353882-0.6396484-0.6735229-1.2783203-0.9949341-1.9248047
		c-0.3701782-0.7446289-0.7207031-1.4980469-1.0721436-2.2509766c-0.3040161-0.6513672-0.6122437-1.3012695-0.9021606-1.9584961
		c-0.3364258-0.7631836-0.6516113-1.5351562-0.9689331-2.3061523c-0.2723389-0.6616211-0.5504761-1.3208008-0.8085938-1.9882812
		c-0.3023682-0.7817383-0.581665-1.5722656-0.864502-2.3608398c-0.2398682-0.6694336-0.4872437-1.3359375-0.7130127-2.0102539
		c-0.2680054-0.8007812-0.5110474-1.6098633-0.7590332-2.4174805c-0.2072144-0.6748047-0.423584-1.3466797-0.6166992-2.0258789
		c-0.2337036-0.8222656-0.4404297-1.652832-0.6533813-2.4814453c-0.1733398-0.6743164-0.3575439-1.3457031-0.5170288-2.0244141
		c-0.199646-0.8496094-0.3702393-1.7070312-0.5480347-2.5625c-0.138855-0.6679688-0.2904053-1.3320312-0.4158325-2.003418
		c-0.1645508-0.8803711-0.2977905-1.7685547-0.4390869-2.6547852c-0.1044922-0.6547852-0.2236328-1.3066406-0.3153687-1.9643555
		c-0.1299438-0.9321289-0.2261353-1.871582-0.3303833-2.809082c-0.0687256-0.6181641-0.1542969-1.2333984-0.211792-1.8540039
		c-0.0968628-1.0454102-0.1568604-2.0966797-0.2214966-3.1474609c-0.0319824-0.519043-0.0822754-1.0356445-0.1063232-1.5561523
		c-0.0727539-1.5732422-0.1109009-3.1523438-0.1109009-4.7363281c0-42.5048828,26.8251953-80.8300781,66.7519531-95.3671875
		l0.3291016-0.1201172V180.6899414c2.9951172,0.2832031,5.1962891,0.5458984,7.0087891,0.8369141v207.0097656v13.5712891
		l-4.9433594,1.8027344c-1.1765137,0.4282227-2.3375244,0.8857422-3.4907227,1.3579102
		c-0.213623,0.0874023-0.4282227,0.1733398-0.6411133,0.2626953c-1.1097412,0.4633789-2.2084961,0.9472656-3.2957764,1.4511719
		c-0.2003174,0.0927734-0.3988037,0.1889648-0.5982666,0.2827148c-1.1166992,0.5273438-2.2246094,1.0693359-3.3168945,1.6391602
		c-0.0096436,0.0048828-0.0195312,0.0092773-0.0290527,0.0146484c-1.1005859,0.5742188-2.1845703,1.1767578-3.2598877,1.7944336
		c-0.1922607,0.1103516-0.385376,0.2192383-0.5767822,0.3310547c-1.0383301,0.605957-2.0648193,1.2314453-3.0787354,1.8769531
		c-0.1729736,0.1103516-0.3441162,0.2236328-0.5162354,0.3349609c-1.0325928,0.6669922-2.0556641,1.3496094-3.0622559,2.0581055
		c-0.0170898,0.012207-0.0344238,0.0234375-0.0515137,0.0356445c-1.0168457,0.7167969-2.0163574,1.4609375-3.0061035,2.2197266
		c-0.1730957,0.1328125-0.3465576,0.2641602-0.5187988,0.3984375c-0.958252,0.7451172-1.9040527,1.5092773-2.8361816,2.2939453
		c-0.0551758,0.0463867-0.112793,0.0888672-0.1679688,0.1357422c-0.0019531,0.0009766-0.0039062,0.0019531-0.0048828,0.0039062
		c-0.0029297,0.0019531-0.0058594,0.0039062-0.0078125,0.0058594c-0.0029297,0.0019531-0.0048828,0.0048828-0.0078125,0.0068359
		c-0.0019531,0.0019531-0.0048828,0.0039062-0.0068359,0.0058594c-0.0029297,0.0019531-0.0048828,0.0048828-0.0078125,0.0068359
		c-0.0009766,0.0009766-0.0029297,0.0019531-0.0039062,0.0029297c-0.1385498,0.1171875-0.2722168,0.2416992-0.4102783,0.3598633
		c-0.5751953,0.4926758-1.1452637,0.9926758-1.710083,1.5004883c-0.2175293,0.1953125-0.435791,0.3901367-0.6518555,0.5878906
		c-0.6938477,0.6352539-1.3811035,1.2792969-2.0588379,1.9370117c-0.046875,0.0454102-0.0957031,0.0883789-0.1425781,0.1342773
		c-0.0087891,0.0097656-0.0185547,0.0185547-0.0283203,0.0273438c-1.9042969,1.8583984-3.7476196,3.8154297-5.5003052,5.8398438
		c-0.5842285,0.6748047-1.1583862,1.3574219-1.7213745,2.0458984c-1.4970703,1.8310547-2.9423828,3.7412109-4.2978516,5.6767578
		c-3.4023438,4.8632812-6.3623047,10.0683594-8.7978516,15.4697266c-0.9765625,2.1669922-1.8818359,4.3974609-2.6914062,6.6279297
		c-0.8115234,2.2363281-1.5488281,4.5380859-2.1904297,6.8388672c-0.6435547,2.3085938-1.2060547,4.671875-1.6708984,7.0253906
		c-1.1816406,5.9775391-1.7802734,12.0986328-1.7802734,18.1933594
		C262.5449219,493.9067383,262.5742188,495.1958008,262.6328125,496.6352539z M330.2089844,179.3481445l0.4169922-0.0703125
		v-0.0087891c9.8964844-1.7587891,12.1904297-5.359375,13.6113281-18.0390625
		c0.9378662,8.5498047,2.2409668,12.9677734,6.1994629,15.5234375h-0.4094238l1.3071289,0.5683594l0.2768555,0.1728516
		l-0.013916-0.0585938l0.6330566,0.2753906c2.5429688,1.1074219,5.8291016,1.7294922,10.7353516,2.2675781
		c-14.5185547,1.5976562-17.1328125,4.2197266-18.7285156,18.7519531
		c-1.4199219-12.6816406-3.7138672-16.2832031-13.6113281-18.0429688v-0.0087891l-0.4169922-0.0703125l-0.5830078-0.0986328
		v0.0048828c-1.1762695-0.1860352-2.5146484-0.3608398-4.1147461-0.5366211
		c1.5991211-0.175293,2.9375-0.3500977,4.1147461-0.5361328v0.0043945L330.2089844,179.3481445z M355.5146484,177.753418h27.859375
		v4.4511719h-15.4951172c-1.0410156,0-1.5859375,0.8173828-1.5859375,1.6259766
		c0,0.8066406,0.5449219,1.6240234,1.5859375,1.6240234h15.4951172v4.4501953h-15.4951172
		c-1.0410156,0-1.5859375,0.8173828-1.5859375,1.6259766c0,0.8066406,0.5449219,1.6240234,1.5859375,1.6240234h15.4951172v4.4501953
		h-15.4951172c-1.0410156,0-1.5859375,0.8173828-1.5859375,1.6259766c0,0.8066406,0.5449219,1.6240234,1.5859375,1.6240234
		h15.4951172v4.4511719h-15.4951172c-1.0410156,0-1.5859375,0.8173828-1.5859375,1.6259766
		c0,0.8066406,0.5449219,1.6240234,1.5859375,1.6240234h15.4951172v4.4492188h-15.4951172
		c-0.4785156,0-0.9033203,0.1865234-1.1943359,0.5263672c-0.2529297,0.2949219-0.3916016,0.6855469-0.3916016,1.0996094
		c0,0.8066406,0.5449219,1.6240234,1.5859375,1.6240234h15.4951172v4.4511719h-15.4951172
		c-1.0410156,0-1.5859375,0.8173828-1.5859375,1.6259766c0,0.8066406,0.5449219,1.6240234,1.5859375,1.6240234h15.4951172v4.4501953
		h-15.4951172c-1.0410156,0-1.5859375,0.8173828-1.5859375,1.6259766c0,0.8066406,0.5449219,1.6240234,1.5859375,1.6240234
		h15.4951172v4.4501953h-31.4951172c-0.4785156,0-0.9033203,0.1865234-1.1943359,0.5263672
		c-0.2529297,0.2949219-0.3916016,0.6845703-0.3916016,1.0996094c0,0.8066406,0.5449219,1.6240234,1.5859375,1.6240234h31.4951172
		v4.4511719h-15.4951172c-1.0410156,0-1.5859375,0.8173828-1.5859375,1.6259766
		c0,0.8066406,0.5449219,1.6240234,1.5859375,1.6240234h15.4951172v4.4501953h-15.4951172
		c-0.4785156,0-0.9033203,0.1865234-1.1943359,0.5263672c-0.2529297,0.2949219-0.3916016,0.6845703-0.3916016,1.0996094
		c0,0.8066406,0.5449219,1.6240234,1.5859375,1.6240234h15.4951172v4.4501953h-15.4951172
		c-1.0410156,0-1.5859375,0.8173828-1.5859375,1.6259766c0,0.8066406,0.5449219,1.6240234,1.5859375,1.6240234h15.4951172v4.4511719
		h-15.4951172c-1.0410156,0-1.5859375,0.8173828-1.5859375,1.6259766c0,0.8066406,0.5449219,1.6240234,1.5859375,1.6240234
		h15.4951172v4.4492188h-15.4951172c-1.0410156,0-1.5859375,0.8173828-1.5859375,1.6259766
		c0,0.8066406,0.5449219,1.6240234,1.5859375,1.6240234h15.4951172v4.4511719h-15.4951172
		c-1.0410156,0-1.5859375,0.8173828-1.5859375,1.6259766c0,0.8066406,0.5449219,1.6240234,1.5859375,1.6240234h15.4951172v4.4501953
		h-15.4951172c-0.4785156,0-0.9033203,0.1865234-1.1943359,0.5263672c-0.2529297,0.2949219-0.3916016,0.6845703-0.3916016,1.0996094
		c0,0.8066406,0.5449219,1.6240234,1.5859375,1.6240234h15.4951172v4.4501953h-16.7431641
		c-0.2216797-1.5175781-0.3876953-3.2880859-0.5234375-4.8466797l-0.9960938-0.0009766
		c-0.1367188,1.5615234-0.3037109,3.3339844-0.5234375,4.8476562h-12.7089844c-0.4785156,0-0.9033203,0.1865234-1.1943359,0.5263672
		c-0.2529297,0.2949219-0.3916016,0.6845703-0.3916016,1.0996094c0,0.8066406,0.5449219,1.6240234,1.5859375,1.6240234h12.0058594
		c-1.2451172,3.8164062-3.7714844,4.4560547-12.0488281,5.1777344v0.9960938
		c11.6396484,1.015625,12.2597656,1.6357422,13.2753906,13.2753906h0.9960938
		c1.0146484-11.6396484,1.6347656-12.2597656,13.2744141-13.2753906v-0.9960938
		c-8.2773438-0.7216797-10.8037109-1.3613281-12.0488281-5.1777344h16.0410156v86.5761719h-52.7480469V181.6967773
		c10.4306641,1.8798828,11.6591797,5.5527344,13.1162109,22.2617188h0.9960938
		c1.7783203-20.3867188,3.0947266-21.703125,23.4814453-23.4814453l0.0009766-0.9960938
		C362.5976562,178.9907227,358.5410156,178.5219727,355.5146484,177.753418z M364.6724854,299.9604492
		c0.0921631-0.390625,0.1772461-0.8071289,0.2550049-1.25h0.5178223l0.0664062-0.421875
		c0.0332031-0.2119141,0.0654297-0.4306641,0.0976562-0.6572266c0.03125,0.2236328,0.0644531,0.4433594,0.0976562,0.6572266
		l0.0673828,0.421875h0.5161133c0.0777588,0.4428711,0.1628418,0.859375,0.2550049,1.25h-0.5357666l0.1708984,0.6298828
		c1.0888672,4.0341797,3.2919922,5.3154297,8.46875,6.0478516c-6.4082031,0.9130859-8.1279297,2.6367188-9.0400391,9.0507812
		c-0.9121094-6.4140625-2.6328125-8.1376953-9.0410156-9.0507812c5.1767578-0.7324219,7.3798828-2.0136719,8.46875-6.0478516
		l0.1708984-0.6298828H364.6724854z M337.3759766,427.8276367l11.4921875-11.4921875
		c2.1630859-2.1630859,5.0507812-3.3535156,8.1318359-3.3535156s5.96875,1.1904297,8.1318359,3.3535156l11.4921875,11.4921875
		c2.1630859,2.1630859,3.3535156,5.0507812,3.3535156,8.1318359c0,3.0820312-1.1904297,5.9697266-3.3535156,8.1318359
		l-1.8828125,1.8828125c0.0712891-0.1171875,0.1315918-0.2382812,0.1977539-0.3574219
		c0.0518799-0.09375,0.1064453-0.1860352,0.1550293-0.28125c0.1118164-0.2172852,0.2124023-0.4389648,0.3071289-0.6625977
		c0.0244141-0.0576172,0.0532227-0.1132812,0.076416-0.1708984c0.1141357-0.2841797,0.2143555-0.5722656,0.3015137-0.8637695
		c0.0216064-0.0717773,0.0367432-0.1455078,0.0566406-0.2177734c0.0605469-0.2202148,0.1164551-0.440918,0.1617432-0.6640625
		c0.0212402-0.1040039,0.0368652-0.2089844,0.0548096-0.3139648c0.0330811-0.1948242,0.0623779-0.3891602,0.0841064-0.5849609
		c0.0125732-0.1132812,0.0222168-0.2260742,0.0308838-0.3393555c0.0148926-0.1918945,0.0236816-0.3837891,0.0274658-0.5761719
		c0.0023193-0.1123047,0.0047607-0.2246094,0.0032959-0.3369141c-0.0026855-0.2026367-0.0141602-0.4047852-0.0290527-0.6069336
		c-0.0072021-0.0991211-0.0109863-0.1982422-0.0212402-0.2973633c-0.0268555-0.2617188-0.0651855-0.5224609-0.1125488-0.7817383
		c-0.0068359-0.0375977-0.0101318-0.0751953-0.017334-0.112793c-0.0578613-0.296875-0.1306152-0.5908203-0.2150879-0.8828125
		c-0.0244141-0.0834961-0.0554199-0.1655273-0.0819092-0.2490234c-0.0655518-0.2060547-0.1348877-0.4111328-0.2139893-0.6132812
		c-0.0408936-0.1044922-0.086792-0.206543-0.1312256-0.3095703c-0.0772705-0.1796875-0.1585693-0.3569336-0.2468262-0.5327148
		c-0.0533447-0.105957-0.1090088-0.2109375-0.1663818-0.315918c-0.0938721-0.1713867-0.1940918-0.3393555-0.2988281-0.5063477
		c-0.0622559-0.0991211-0.1237793-0.1987305-0.1899414-0.2963867c-0.1193848-0.1757812-0.2480469-0.347168-0.3798828-0.5170898
		c-0.0622559-0.0800781-0.1206055-0.1625977-0.185791-0.2416992c-0.2022705-0.2446289-0.4151611-0.4838867-0.6442871-0.7128906
		l-9.1523438-9.1523438c-1.9609375-1.9609375-4.5361328-2.9414062-7.1113281-2.9414062s-5.1503906,0.9804688-7.1113281,2.9414062
		l-9.1523438,9.1523438c-0.229126,0.2290039-0.4420166,0.4682617-0.6442871,0.7128906
		c-0.0651855,0.0791016-0.1235352,0.1616211-0.185791,0.2416992c-0.1318359,0.1699219-0.260498,0.3413086-0.3798828,0.5170898
		c-0.0661621,0.0976562-0.1276855,0.1972656-0.1899414,0.2963867c-0.1047363,0.1669922-0.2049561,0.3349609-0.2988281,0.5063477
		c-0.057373,0.1049805-0.1130371,0.2099609-0.1663818,0.315918c-0.0882568,0.1757812-0.1695557,0.3530273-0.2468262,0.5327148
		c-0.0444336,0.1030273-0.090332,0.2050781-0.1312256,0.3095703c-0.0791016,0.2021484-0.1484375,0.4072266-0.2139893,0.6132812
		c-0.0264893,0.0834961-0.0574951,0.1655273-0.0819092,0.2490234c-0.0844727,0.2919922-0.1572266,0.5859375-0.2150879,0.8828125
		c-0.0072021,0.0375977-0.010498,0.0751953-0.017334,0.112793c-0.0473633,0.2592773-0.0856934,0.5200195-0.1125488,0.7817383
		c-0.0102539,0.0991211-0.0140381,0.1982422-0.0212402,0.2973633c-0.0148926,0.2021484-0.0263672,0.4042969-0.0290527,0.6069336
		c-0.0014648,0.1123047,0.0009766,0.2246094,0.0032959,0.3369141c0.0037842,0.1923828,0.0125732,0.3842773,0.0274658,0.5761719
		c0.008667,0.1132812,0.0183105,0.2260742,0.0308838,0.3393555c0.0217285,0.1958008,0.0510254,0.3901367,0.0841064,0.5849609
		c0.0179443,0.1049805,0.0335693,0.2099609,0.0548096,0.3139648c0.0452881,0.2231445,0.1011963,0.4438477,0.1617432,0.6640625
		c0.0198975,0.0722656,0.0350342,0.1459961,0.0566406,0.2177734c0.0871582,0.2915039,0.1873779,0.5795898,0.3015137,0.8637695
		c0.0231934,0.0576172,0.052002,0.1132812,0.076416,0.1708984c0.0947266,0.2236328,0.1953125,0.4453125,0.3071289,0.6625977
		c0.048584,0.0952148,0.1031494,0.1875,0.1550293,0.28125c0.0661621,0.1191406,0.1264648,0.2402344,0.1977539,0.3574219
		l-1.8828125-1.8828125c-2.1630859-2.1621094-3.3535156-5.0498047-3.3535156-8.1318359
		C334.0224609,432.878418,335.2128906,429.9907227,337.3759766,427.8276367z M341.4433594,434.3354492l9.1523438-9.1523438
		c1.765625-1.765625,4.0849609-2.6484375,6.4042969-2.6484375s4.6386719,0.8828125,6.4042969,2.6484375l9.1523438,9.1523438
		c3.53125,3.53125,3.53125,9.2773438,0,12.8085938l-9.1523438,9.1523438
		c-0.3693848,0.3691406-0.7692871,0.7041016-1.1940918,1.0014648c-1.2741699,0.8925781-2.7719727,1.449707-4.3400879,1.5981445
		c-0.578125,0.0566406-1.1630859,0.0566406-1.7412109,0c-2.0898438-0.1982422-4.0556641-1.1220703-5.5332031-2.5996094
		l-9.1523438-9.1523438C337.9121094,443.612793,337.9121094,437.8666992,341.4433594,434.3354492z M377.4277344,492.6796875
		c2.4674072,28.2958984,4.4677734,30.2958984,32.7634277,32.7636719
		c-28.2956543,2.4672852-30.2960205,4.4677734-32.7634277,32.7631836
		c-2.4675293-28.2954102-4.4677734-30.2958984-32.7635498-32.7631836
		C372.9599609,522.9755859,374.9602051,520.9755859,377.4277344,492.6796875z M383.3740234,112.8999023h-31.4951172
		c-1.0410156,0-1.5859375,0.8173828-1.5859375,1.6259766c0,0.8066406,0.5449219,1.6240234,1.5859375,1.6240234h31.4951172v4.4511719
		h-15.4951172c-1.0410156,0-1.5859375,0.8173828-1.5859375,1.6259766c0,0.8066406,0.5449219,1.6240234,1.5859375,1.6240234
		h15.4951172v4.4492188h-15.4951172c-0.4785156,0-0.9033203,0.1865234-1.1943359,0.5263672
		c-0.2529297,0.2949219-0.3916016,0.6845703-0.3916016,1.0996094c0,0.8066406,0.5449219,1.6240234,1.5859375,1.6240234h15.4951172
		v4.4511719h-15.4951172c-1.0410156,0-1.5859375,0.8173828-1.5859375,1.6259766
		c0,0.8066406,0.5449219,1.6240234,1.5859375,1.6240234h15.4951172v4.4501953h-15.4951172
		c-1.0410156,0-1.5859375,0.8173828-1.5859375,1.6259766c0,0.8066406,0.5449219,1.6240234,1.5859375,1.6240234h15.4951172v4.4501953
		h-15.4951172c-1.0410156,0-1.5859375,0.8173828-1.5859375,1.6259766c0,0.8066406,0.5449219,1.6240234,1.5859375,1.6240234
		h15.4951172v4.4511719h-15.4951172c-1.0410156,0-1.5859375,0.8173828-1.5859375,1.6259766
		c0,0.8066406,0.5449219,1.6240234,1.5859375,1.6240234h15.4951172v4.4501953h-15.4951172
		c-1.0410156,0-1.5859375,0.8173828-1.5859375,1.6259766c0,0.8066406,0.5449219,1.6240234,1.5859375,1.6240234h15.4951172v4.4501953
		h-31.4951172c-0.5,0-0.9345703,0.2011719-1.2236328,0.5673828c-0.1054688,0.1347656-0.1894531,0.2871094-0.2480469,0.4492188
		c-3.8300781-2.9013672-4.6982422-8.3837891-5.6689453-19.5205078h-0.9960938
		c-1.4570312,16.7089844-2.6855469,20.3818359-13.1162109,22.2607422v-65.5351562
		c0-14.5429688,11.8310547-26.3740234,26.3740234-26.3740234s26.3740234,11.8310547,26.3740234,26.3740234V112.8999023z
		 M316.7807617,492.6796875c-11.8574219,1.0341797-12.6955566,1.8720703-13.7296143,13.7294922
		c-1.0340576-11.8574219-1.8721924-12.6953125-13.7296143-13.7294922
		c11.8574219-1.0336914,12.6955566-1.8720703,13.7296143-13.7294922
		C304.0852051,490.8076172,304.9233398,491.6459961,316.7807617,492.6796875z M428.5039062,564.7641602l-0.0419922,0.1162109
		l0.0175781,0.1220703c0.0908203,0.6474609,0.1376953,1.1796875,0.1494141,1.6748047
		c0.2001953,8.8242188-0.546875,17.46875-2.2832031,26.4257812c-0.0488281,0.2539062-0.1005859,0.6054688-0.1630859,1.0341797
		c-0.4208984,2.8828125-1.2958984,8.8798828-5.2294922,11.6621094c-1.9345703,1.3681641-4.4091797,1.7646484-7.3603516,1.1865234
		c-3.0751953-0.6074219-4.5537109-2.8876953-6.1181641-5.3017578c-1.5302734-2.3613281-3.1132812-4.8027344-6.2695312-5.9912109
		l-0.1484375-0.0566406l-0.1542969,0.0410156c-2.6699219,0.6982422-4.5517578,2.0322266-5.5927734,3.9648438
		c-2.2509766,4.1767578-0.1591797,10.3632812,1.3681641,14.8808594c0.6455078,1.90625,1.2021484,3.5537109,1.3037109,4.6269531
		c0.0732422,0.7646484,0.1582031,1.5498047,0.2460938,2.3515625c0.8173828,7.4824219,1.7441406,15.9560547-6.1259766,22.1699219
		c-3.0644531-0.0429688-5.3330078-0.9042969-6.7441406-2.5605469c-0.3511963-0.4121094-0.644165-0.8642578-0.8867188-1.3476562
		c-0.2426758-0.4833984-0.4350586-0.9980469-0.5847168-1.5351562c-0.0749512-0.2680664-0.1392822-0.5424805-0.1939697-0.8208008
		c-0.6013184-3.0634766-0.0373535-6.6674805,0.380249-9.3344727c0.1560059-0.9975586,0.2873535-1.8383789,0.3394775-2.5083008
		c0.0174561-0.2231445,0.026001-0.4272461,0.0238037-0.6118164l-0.0117188-1.4609375
		c-0.050293-7.9008789-0.1256104-19.5888672-11.9956055-26.1992188c-0.7912598-0.440918-1.6350098-0.8588867-2.534668-1.2519531
		l-0.3505859-0.1533203l-0.2392578,0.2988281c-2.34375,2.9228516-2.0908203,6.0898438-1.8466797,9.1533203
		c0.1318359,1.6533203,0.2558594,3.2148438-0.0039062,4.7402344c-1.0986328,6.4570312-5.1660156,12.7949219-11.7705078,18.3427734
		c-0.4411621-0.1386719-0.8525391-0.2900391-1.2358398-0.453125c-5.7495117-2.4462891-5.1951904-7.5551758-4.7026367-12.1025391
		c0.1699219-1.5712891,0.3310547-3.0566406,0.1865234-4.2714844c-0.8818359-7.4443359-4.4736328-14.2080078-8.2763672-21.3681641
		c-0.5253906-0.9912109-1.0537109-1.9853516-1.5751953-2.984375l-0.3525391-0.6748047l-0.4794922,0.5917969
		c-2.8515625,3.5175781-3.4970703,7.3828125-4.1210938,11.1201172c-1.0283203,6.1552734-2,11.9716797-12.0742188,16.7236328
		c-6.2753906-2.3369141-5.0039062-9.5957031-3.9804688-15.4394531c0.3232422-1.8515625,0.6035156-3.4501953,0.5927734-4.6806641
		c-0.0058594-0.6572266-0.0119629-1.3344727-0.026123-2.027832s-0.0366211-1.402832-0.0750732-2.1245117
		c-0.0209961-0.3935547-0.0482178-0.7915039-0.0800781-1.1918945c-0.2801514-3.5126953-1.0389404-7.2490234-3.1363525-10.7675781
		l0.1672363,0.0756836l-1.2255859-1.6904297c-0.0625-0.0888672-0.125-0.1787109-0.1933594-0.2675781l-0.1416016-0.1269531
		c-1.0908203-0.6503906-2.2050781-1.3066406-3.3662109-1.9550781l-0.2246094-0.125l-0.2324219,0.109375
		c-0.1242676,0.0581055-0.2540283,0.128418-0.3962402,0.2070312l-0.0021973-0.0009766l-0.1992188,0.1137695
		c-0.0125732,0.0068359-0.0211182,0.0117188-0.0341797,0.019043l-0.8105469,0.4580078l0.0532227,0.0273438
		c-1.0129395,0.6894531-1.9423828,1.5263672-2.8422852,2.3476562c-0.2382812,0.2177734-0.4753418,0.4331055-0.7128906,0.6464844
		c-1.7141113,1.5385742-3.4581299,2.9082031-5.9056396,3.3066406c-0.9285889,0.1503906-1.9588623,0.1621094-3.12854-0.0097656
		c-3.0380859-0.4492188-6.0410156-5.2568359-7.3232422-7.3095703c-0.1943359-0.3115234-0.359375-0.5751953-0.4902344-0.7724609
		c-3.2871094-4.9560547-3.8486328-10.2441406-3.9697266-14.296875l-0.0039062-0.1279297l-0.0644531-0.109375
		c-1.0263672-1.7558594-1.9013672-3.6201172-2.5283203-5.390625c-0.7734375-2.1806641-1.1591797-4.1552734-1.1455078-5.8994141
		c0.0107422-1.0351562,0.1669922-1.9453125,0.4648438-2.7050781c0.8496094-2.1738281,2.0029297-3.4462891,3.4277344-3.7841797
		c3.2460938-0.7675781,7.6591797,3.2011719,10.8798828,6.0996094c0.7099609,0.6396484,1.3720703,1.2353516,1.9667969,1.7333984
		c0.4423828,0.3710938,0.9316406,0.7988281,1.4570312,1.2587891c3.0371094,2.6582031,7.1962891,6.2988281,10.8193359,6.4335938
		c3.6035156,0.1337891,4.171875-1.9121094,4.8134766-4.28125c0.265625-0.9833984,0.5673828-2.0976562,1.1142578-3.2431641
		c1.34375-2.8144531,2.9892578-4.4189453,5.03125-4.9052734c4.2392578-1.0117188,9.5927734,3.1298828,13.8984375,6.4560547
		c0.515625,0.3984375,1.0214844,0.7890625,1.5136719,1.1621094c6.3457031,4.8134766,11.6816406,5.7431641,19.3076172,5.7744141
		c0.4814453,0.0029297,0.9619141,0.0009766,1.4414062-0.0009766c3.6816406-0.0136719,7.5087891-0.0234375,10.9130859,1.6132812
		c1.6113281,0.7734375,2.9619141,1.9326172,4.390625,3.1601562c1.4228516,1.2216797,2.8945312,2.484375,4.6386719,3.3193359
		c8.0712891,3.8613281,17.1640625-2.5771484,21.6279297-10.5917969c0.5878906-1.0546875,1.0869141-2.0136719,1.5410156-2.8857422
		c2.65625-5.1074219,3.6503906-7.0175781,11.9130859-8.2119141c9.5318604-1.378418,15.4477539,1.0273438,17.1184082,6.9521484
		l0.0124512,0.0449219c0.2988281,1.078125,0.4609375,2.2675781,0.4814453,3.5371094
		C430.4482422,557.8168945,429.8115234,561.1235352,428.5039062,564.7641602z M458.3530273,489.4208984
		c-0.0013428,0.0307617-0.0018311,0.0610352-0.0031738,0.0917969c-0.072998,1.5493164-0.1828613,3.0922852-0.3250732,4.6289062
		c-0.005249,0.0566406-0.0087891,0.1137695-0.0141602,0.1704102c-0.1428223,1.5146484-0.3216553,3.0224609-0.53125,4.5234375
		c-0.0106201,0.0761719-0.019165,0.1533203-0.0301514,0.2294922c-0.2102051,1.4824219-0.4558105,2.956543-0.7305908,4.4233398
		c-0.0174561,0.0927734-0.0325928,0.1865234-0.050293,0.2792969c-0.2757568,1.449707-0.5855713,2.8901367-0.9237061,4.3227539
		c-0.0253906,0.1079102-0.048584,0.2167969-0.0744629,0.324707c-0.3395996,1.418457-0.7124023,2.8271484-1.1124268,4.2270508
		c-0.0336914,0.1176758-0.0651855,0.2363281-0.0993652,0.3544922c-0.4014893,1.3857422-0.8353271,2.7612305-1.2954102,4.1269531
		c-0.0435791,0.1293945-0.0848389,0.2592773-0.1290283,0.3886719c-0.4624023,1.3540039-0.9560547,2.6967773-1.4754639,4.0292969
		c-0.0527344,0.1352539-0.1033936,0.2714844-0.1567383,0.40625c-0.5218506,1.3222656-1.0743408,2.6323242-1.6519775,3.9311523
		c-0.0627441,0.1411133-0.1236572,0.2832031-0.1870117,0.4238281c-0.5800781,1.2885742-1.1899414,2.5644531-1.8243408,3.8286133
		c-0.0731201,0.1459961-0.1448975,0.2924805-0.2186279,0.4379883c-0.6373291,1.2543945-1.3032227,2.4956055-1.9934082,3.7241211
		c-0.0837402,0.1489258-0.1662598,0.2988281-0.2507324,0.4472656c-0.6931152,1.2192383-1.4140625,2.4238281-2.1591797,3.6157227
		c-0.0944824,0.1513672-0.1879883,0.3032227-0.2833252,0.4536133c-0.7479248,1.1826172-1.5228271,2.3505859-2.3214111,3.5039062
		c-0.105957,0.1533203-0.2113037,0.3066406-0.3181152,0.4589844c-0.8015137,1.1445312-1.6290283,2.2734375-2.4801025,3.3876953
		c-0.1173096,0.1538086-0.234375,0.3076172-0.3526611,0.4609375c-0.8537598,1.1044922-1.732666,2.1928711-2.6347656,3.2661133
		c-0.1296387,0.1542969-0.2592773,0.3085938-0.3898926,0.4619141c-0.9049072,1.0634766-1.8341064,2.1108398-2.7862549,3.1411133
		c-0.0708008,0.0771484-0.1420898,0.1533203-0.2132568,0.2299805c-0.0159912-0.1845703-0.0457764-0.3598633-0.0678711-0.5405273
		c-0.0152588-0.125-0.0289307-0.2509766-0.0471191-0.3745117c-0.0720215-0.4887695-0.1585693-0.9682617-0.2753906-1.425293
		c0.2646484-0.3330078,0.53479-0.6796875,0.821167-1.0498047c0.0330811-0.0424805,0.0667725-0.0844727,0.0997314-0.1269531
		c0.0068359-0.0097656,0.0146484-0.0195312,0.0224609-0.0292969c0.0009766-0.0019531,0.0029297-0.0039062,0.0039062-0.0058594
		l0.0009766-0.0009766h-0.0002441c0.0178223-0.0234375,0.0339355-0.0439453,0.052002-0.0673828
		c0.0068359-0.0087891,0.0129395-0.0180664,0.0196533-0.0268555c0.8565674-1.1152344,1.6922607-2.2548828,2.4832764-3.3862305
		l-0.001709-0.0009766c0.013916-0.0200195,0.0288086-0.0385742,0.0427246-0.0585938
		c0.4693604-0.671875,0.9255371-1.3481445,1.3729248-2.0249023c0.0360107-0.0546875,0.0736084-0.1069336,0.1094971-0.1616211
		c0.2958984-0.4482422,0.5849609-0.8964844,0.8671875-1.3408203c0.0048828-0.0078125,0.0097656-0.0146484,0.0136719-0.0224609
		c0,0,0,0,0.0009766,0l-0.0007324-0.0004883c0.0028076-0.0043945,0.0057373-0.0087891,0.0085449-0.0131836
		c0.0068359-0.0126953,0.0146484-0.0244141,0.0224609-0.0371094c0.6838379-1.0805664,1.3388672-2.1811523,1.9790039-3.2905273
		c0.1210938-0.2099609,0.2435303-0.418457,0.3630371-0.6293945c0.6120605-1.0800781,1.2025146-2.171875,1.7717285-3.2753906
		c0.1134033-0.2197266,0.2236328-0.440918,0.3354492-0.6611328c0.1813965-0.3588867,0.3681641-0.7143555,0.5449219-1.0751953
		c0.2623291-0.5351562,0.5045166-1.0786133,0.7563477-1.6176758c0.175293-0.3754883,0.355957-0.7480469,0.526123-1.1254883
		c0.5394287-1.1967773,1.0600586-2.4003906,1.5476074-3.6152344c0.0037842-0.0097656,0.0068359-0.0180664,0.010498-0.0273438
		l0.0412598-0.1025391c0.0009766-0.0019531,0.0019531-0.0048828,0.0029297-0.0068359
		c0.1635742-0.4091797,0.324707-0.8359375,0.4862061-1.2587891c0.3277588-0.8579102,0.6514893-1.7294922,0.9630127-2.6230469
		l0.1015625-0.2890625c0.4199219-1.2158203,0.8339844-2.5078125,1.2314453-3.8388672h-0.0004883
		c0.0001221-0.0009766,0.0002441-0.0014648,0.0004883-0.0019531l0.125-0.4189453
		c0.3662109-1.2519531,0.7128906-2.5410156,1.0322266-3.8310547l0.1230469-0.5c0-0.0019531,0-0.0029297,0.0009766-0.0039062
		c0.0498047-0.2089844,0.0996094-0.4179688,0.1484375-0.6289062c0.2436523-1.0380859,0.4645996-2.0722656,0.6660156-3.0878906
		c0.0090332-0.0449219,0.0213623-0.0922852,0.0302734-0.1376953l0.1015625-0.53125
		c0.1516113-0.7949219,0.2849121-1.5576172,0.409668-2.3100586c0.013916-0.0849609,0.0317383-0.171875,0.0454102-0.2563477
		c0.0742188-0.4550781,0.1435547-0.9052734,0.2099609-1.3544922h-0.0007324l0.072998-0.5146484
		c0.1953125-1.3710938,0.3583984-2.7236328,0.4863281-4.0214844h-0.0008545l0.039917-0.4394531
		c0.1376953-1.4707031,0.2363281-2.8359375,0.3027344-4.1787109l0.0097656-0.2792969
		c0.0712891-1.5585938,0.1064453-2.9970703,0.1064453-4.3994141c0-6.0966797-0.5996094-12.2177734-1.78125-18.1933594
		c-0.4648438-2.3535156-1.0273438-4.7167969-1.6708984-7.0253906h-0.0002441
		c-0.6376953-2.2895508-1.3748779-4.5913086-2.1901855-6.8388672c-0.8076172-2.2275391-1.7128906-4.4570312-2.6904297-6.6279297
		c-2.4345703-5.4013672-5.3955078-10.6064453-8.7978516-15.4697266c-1.3515625-1.9306641-2.7978516-3.8408203-4.2988281-5.6767578
		c-2.25-2.7529297-4.6796875-5.40625-7.2207031-7.8857422c-0.0090332-0.0087891-0.0183105-0.0170898-0.0273438-0.0258789
		c-0.0134277-0.0131836-0.0264893-0.0258789-0.0400391-0.0395508c-0.0039062-0.0029297-0.0068359-0.0058594-0.0097656-0.0087891
		c-0.1535645-0.1494141-0.3112793-0.293457-0.4658203-0.4414062c-0.4432373-0.4257812-0.8865967-0.8515625-1.3366699-1.2675781
		c-0.1759033-0.1625977-0.355957-0.3193359-0.532959-0.4804688c-0.4401855-0.4008789-0.8798828-0.8022461-1.326416-1.1938477
		c-0.1917725-0.168457-0.3878174-0.3300781-0.5808105-0.496582c-0.4368896-0.3769531-0.8730469-0.7553711-1.3157959-1.1235352
		c-0.2012939-0.1674805-0.4069824-0.328125-0.6094971-0.4941406c-0.4404297-0.3598633-0.880127-0.7211914-1.326416-1.0732422
		c-0.2062988-0.1625977-0.4168701-0.3183594-0.6242676-0.4790039c-0.4465332-0.3457031-0.8918457-0.6928711-1.34375-1.0297852
		c-0.2366943-0.1767578-0.4779053-0.3461914-0.7160645-0.5200195c-0.4290771-0.3139648-0.8566895-0.6298828-1.2905273-0.9360352
		c-0.2558594-0.1806641-0.5163574-0.3535156-0.7736816-0.53125c-0.4213867-0.2905273-0.8409424-0.5844727-1.2666016-0.8681641
		c-0.2788086-0.1855469-0.5625-0.3632812-0.8431396-0.5458984c-0.4110107-0.2675781-0.8199463-0.5385742-1.2349854-0.7993164
		c-0.2773438-0.1743164-0.5595703-0.3408203-0.8388672-0.512207c-0.4237061-0.2602539-0.8457031-0.5234375-1.2735596-0.7768555
		c-0.3013916-0.1782227-0.607666-0.3481445-0.9110107-0.5234375c-0.4102783-0.2363281-0.8183594-0.4765625-1.2324219-0.7070312
		c-0.3607178-0.2011719-0.7270508-0.3925781-1.0905762-0.5888672c-0.3625488-0.1953125-0.7224121-0.3955078-1.0877686-0.5864258
		c-0.3961182-0.206543-0.7977295-0.4038086-1.1971436-0.6049805c-0.3388672-0.1708984-0.6748047-0.3466797-1.0159912-0.5136719
		c-0.4222412-0.2060547-0.8499756-0.402832-1.2757568-0.6030273c-0.3236084-0.1518555-0.6442871-0.3095703-0.9699707-0.4580078
		c-0.5014648-0.2290039-1.0089111-0.4472656-1.5151367-0.6679688c-0.2545166-0.1108398-0.5061035-0.2265625-0.7617188-0.3354492
		c-0.5881348-0.25-1.1821289-0.4887695-1.7766113-0.7275391c-0.1787109-0.0712891-0.3547363-0.1479492-0.5340576-0.21875
		c-0.7755127-0.3056641-1.5562744-0.6015625-2.3421631-0.8876953l-4.9433594-1.8032227v-13.5708008v-87.5761719h0.9931641
		c1.0419922,0,1.5869141-0.8183594,1.5869141-1.6259766c0-0.4140625-0.1386719-0.8046875-0.3925781-1.0986328
		c-0.2910156-0.3388672-0.7148438-0.5253906-1.1943359-0.5253906h-0.9931641v-4.4501953h0.9931641
		c1.0419922,0,1.5869141-0.8183594,1.5869141-1.6259766c0-0.4140625-0.1386719-0.8046875-0.3925781-1.0986328
		c-0.2910156-0.3388672-0.7148438-0.5253906-1.1943359-0.5253906h-0.9931641v-4.4501953h0.9931641
		c1.0419922,0,1.5869141-0.8183594,1.5869141-1.6259766c0-0.4140625-0.1386719-0.8046875-0.3925781-1.0986328
		c-0.2910156-0.3388672-0.7148438-0.5253906-1.1943359-0.5253906h-0.9931641v-4.4511719h0.9931641
		c1.0419922,0,1.5869141-0.8183594,1.5869141-1.6259766c0-0.4140625-0.1386719-0.8046875-0.3925781-1.0986328
		c-0.2910156-0.3388672-0.7148438-0.5253906-1.1943359-0.5253906h-0.9931641v-4.4492188h0.9931641
		c1.0419922,0,1.5869141-0.8183594,1.5869141-1.6259766c0-0.4140625-0.1386719-0.8046875-0.3925781-1.0986328
		c-0.2910156-0.3388672-0.7148438-0.5253906-1.1943359-0.5253906h-0.9931641v-4.4511719h0.9931641
		c1.0419922,0,1.5869141-0.8183594,1.5869141-1.6259766c0-0.4140625-0.1386719-0.8046875-0.3925781-1.0986328
		c-0.2910156-0.3388672-0.7148438-0.5253906-1.1943359-0.5253906h-0.9931641v-4.4501953h0.9931641
		c1.0419922,0,1.5869141-0.8183594,1.5869141-1.6259766c0-0.4140625-0.1386719-0.8046875-0.3925781-1.0986328
		c-0.2910156-0.3388672-0.7148438-0.5253906-1.1943359-0.5253906h-0.9931641v-4.4501953h0.9931641
		c1.0419922,0,1.5869141-0.8183594,1.5869141-1.6259766c0-0.4140625-0.1386719-0.8046875-0.3925781-1.0986328
		c-0.2910156-0.3388672-0.7148438-0.5253906-1.1943359-0.5253906h-0.9931641v-4.4511719h0.9931641
		c1.0419922,0,1.5869141-0.8183594,1.5869141-1.6259766c0-0.4140625-0.1386719-0.8046875-0.3925781-1.0986328
		c-0.2910156-0.3388672-0.7148438-0.5253906-1.1943359-0.5253906h-0.9931641v-4.4501953h0.9931641
		c1.0419922,0,1.5869141-0.8183594,1.5869141-1.6259766c0-0.4140625-0.1386719-0.8046875-0.3925781-1.0986328
		c-0.2910156-0.3388672-0.7148438-0.5253906-1.1943359-0.5253906h-0.9931641v-4.4501953h0.9931641
		c1.0419922,0,1.5869141-0.8183594,1.5869141-1.6259766c0-0.4140625-0.1386719-0.8046875-0.3925781-1.0986328
		c-0.2910156-0.3388672-0.7148438-0.5253906-1.1943359-0.5253906h-0.9931641v-4.4511719h0.9931641
		c1.0419922,0,1.5869141-0.8183594,1.5869141-1.6259766c0-0.4140625-0.1386719-0.8046875-0.3925781-1.0986328
		c-0.2910156-0.3388672-0.7148438-0.5253906-1.1943359-0.5253906h-0.9931641v-4.4492188h0.9931641
		c1.0419922,0,1.5869141-0.8183594,1.5869141-1.6259766c0-0.4140625-0.1386719-0.8046875-0.3925781-1.0986328
		c-0.2910156-0.3388672-0.7148438-0.5253906-1.1943359-0.5253906h-0.9931641v-4.4511719h0.9931641
		c1.0419922,0,1.5869141-0.8183594,1.5869141-1.6259766c0-0.4140625-0.1386719-0.8046875-0.3925781-1.0986328
		c-0.2910156-0.3388672-0.7148438-0.5253906-1.1943359-0.5253906h-0.9931641v-4.4501953h0.9931641
		c1.0419922,0,1.5869141-0.8183594,1.5869141-1.6259766c0-0.4140625-0.1386719-0.8046875-0.3925781-1.0986328
		c-0.2910156-0.3388672-0.7148438-0.5253906-1.1943359-0.5253906h-0.9931641v-4.4501953h0.9931641
		c1.0419922,0,1.5869141-0.8183594,1.5869141-1.6259766c0-0.4140625-0.1386719-0.8046875-0.3925781-1.0986328
		c-0.2910156-0.3388672-0.7148438-0.5253906-1.1943359-0.5253906h-0.9931641v-4.4511719h0.9931641
		c1.0419922,0,1.5869141-0.8183594,1.5869141-1.6259766c0-0.4140625-0.1386719-0.8046875-0.3925781-1.0986328
		c-0.2910156-0.3388672-0.7148438-0.5253906-1.1943359-0.5253906h-0.9931641v-4.4501953h0.9931641
		c1.0419922,0,1.5869141-0.8183594,1.5869141-1.6259766c0-0.4140625-0.1386719-0.8046875-0.3925781-1.0986328
		c-0.2910156-0.3388672-0.7148438-0.5253906-1.1943359-0.5253906h-0.9931641v-4.4501953h0.9931641
		c1.0419922,0,1.5869141-0.8183594,1.5869141-1.6259766c0-0.4140625-0.1386719-0.8046875-0.3925781-1.0986328
		c-0.2910156-0.3388672-0.7148438-0.5253906-1.1943359-0.5253906h-0.9931641v-4.4511719h0.9931641
		c1.0419922,0,1.5869141-0.8183594,1.5869141-1.6259766c0-0.4140625-0.1386719-0.8046875-0.3925781-1.0986328
		c-0.2910156-0.3388672-0.7148438-0.5253906-1.1943359-0.5253906h-0.9931641v-4.4501953h0.9931641
		c1.0419922,0,1.5869141-0.8183594,1.5869141-1.6259766c0-0.4140625-0.1386719-0.8046875-0.3925781-1.0986328
		c-0.2910156-0.3388672-0.7148438-0.5253906-1.1943359-0.5253906h-0.9931641v-4.4501953h0.9931641
		c1.0419922,0,1.5869141-0.8183594,1.5869141-1.6259766c0-0.4140625-0.1386719-0.8046875-0.3925781-1.0986328
		c-0.2910156-0.3388672-0.7148438-0.5253906-1.1943359-0.5253906h-0.9931641v-4.4511719h0.9931641
		c1.0419922,0,1.5869141-0.8183594,1.5869141-1.6259766c0-0.4140625-0.1386719-0.8046875-0.3925781-1.0986328
		c-0.2910156-0.3388672-0.7148438-0.5253906-1.1943359-0.5253906h-0.9931641v-4.4492188h0.9931641
		c1.0419922,0,1.5869141-0.8183594,1.5869141-1.6259766c0-0.4140625-0.1386719-0.8046875-0.3925781-1.0986328
		c-0.2910156-0.3388672-0.7148438-0.5253906-1.1943359-0.5253906h-0.9931641v-4.4511719h0.9931641
		c1.0419922,0,1.5869141-0.8183594,1.5869141-1.6259766c0-0.4140625-0.1386719-0.8046875-0.3925781-1.0986328
		c-0.2910156-0.3388672-0.7148438-0.5253906-1.1943359-0.5253906h-0.9931641v-0.1748047
		c0-15.09375-12.2802734-27.3740234-27.3740234-27.3740234s-27.3740234,12.2802734-27.3740234,27.3740234v65.7050781
		c-1.8144531,0.2919922-4.0166016,0.5546875-7.0087891,0.8369141v-74.5585938
		c0-18.9589844,15.4238281-34.3828125,34.3828125-34.3828125s34.3828125,15.4238281,34.3828125,34.3828125v284.4804688
		l0.3291016,0.1201172c39.9267578,14.5371094,66.7519531,52.8623047,66.7519531,95.3671875
		C458.4638672,486.2631836,458.4257812,487.8447266,458.3530273,489.4208984z"/>
	<path d="M390.6972656,569.152832l-0.0058594,0.0019531c-30.5205078,10.0585938-65.4570312,6.2910156-95.8486328-10.3378906
		l-3.1865234-1.7441406l2.5966797,2.5400391c12.1767578,11.9082031,28.8574219,20.0488281,46.9697266,22.9228516
		c4.9365234,0.7832031,9.9248047,1.1699219,14.8925781,1.1699219c12.9560547,0,25.7714844-2.6328125,37.1582031-7.734375
		c11.203125-4.9130859,21.0429688-11.8740234,28.4560547-20.1308594l2.2734375-2.53125l-2.9052734,1.7705078
		C411.0126953,561.2260742,400.7841797,565.9604492,390.6972656,569.152832z"/>
</g>
</svg>
