<?xml version="1.0" encoding="utf-8"?>
<!-- Generator: Adobe Illustrator 27.3.1, SVG Export Plug-In . SVG Version: 6.00 Build 0)  -->
<svg version="1.1" id="Layer_1" xmlns="http://www.w3.org/2000/svg" xmlns:xlink="http://www.w3.org/1999/xlink" x="0px" y="0px"
	 viewBox="0 0 714 714" style="enable-background:new 0 0 714 714;" xml:space="preserve">
<style type="text/css">
	.st0{fill:#F2F2F2;}
	.st1{fill:#DCEEFF;}
	.st2{fill:#88ADE2;}
	.st3{fill:#9CBDEF;}
	.st4{fill:#B8DFFF;}
	.st5{fill:#FFFFFF;}
	.st6{fill:#F76861;}
	.st7{fill:#E54C4C;}
	.st8{fill:#EDAE48;}
	.st9{fill:#E29C37;}
	.st10{fill:#FCE875;}
	.st11{fill:#EFD865;}
	.st12{fill:#9BE265;}
	.st13{fill:#84CE45;}
	.st14{fill:#7DD7FB;}
	.st15{fill:#5FC1E0;}
	.st16{fill:#3B78F5;}
	.st17{fill:#1E59C1;}
	.st18{fill:#8F74F6;}
	.st19{fill:#6350D3;}
	.st20{fill:#E2C849;}
	.st21{fill:#E24747;}
	.st22{fill:#D89027;}
	.st23{fill:#EAD25E;}
	.st24{fill:#88D346;}
	.st25{fill:#5AC5E5;}
	.st26{fill:#2466DD;}
	.st27{fill:#7B67F4;}
	.st28{fill:#F9ECAF;}
	.st29{fill:#A9D7F7;}
	.st30{fill:#D9EEFC;}
	.st31{fill:#75A1EF;}
	.st32{fill:#808080;}
	.st33{fill:#F4AEAE;}
	.st34{fill:#EF6359;}
	.st35{fill:#4D4D4D;}
	.st36{fill:#F7A623;}
	.st37{fill:#FCE5C5;}
	.st38{fill:#3C7AD3;}
	.st39{fill:#94C9ED;}
</style>
<g>
	<path class="st0" d="M468.9638672,484.6699219c0-44.5263672-26.6826172-84.8974609-67.081543-102.5976562V104.7021484
		c0-24.7480469-20.1342773-44.8828125-44.8823242-44.8828125c-24.7485352,0-44.8828125,20.1347656-44.8828125,44.8828125
		v277.3701172c-40.3989258,17.7001953-67.0810547,58.0712891-67.0810547,102.5976562
		c0,27.7109375,10.1474609,54.1767578,28.6186523,74.7529297c0.4052734,0.9707031,0.8540039,1.9384766,1.3432617,2.8984375
		c0.3540039,4.84375,1.5209961,11.1669922,5.5893555,17.3007812c0.090332,0.1367188,0.2021484,0.3183594,0.3354492,0.5322266
		c2.2255859,3.5625,6.8564453,10.9736328,14.6914062,12.1328125c1.0673828,0.1572266,2.1333008,0.2373047,3.168457,0.2373047
		c4.2470703,0,7.5703125-1.2861328,10.1655273-2.8671875c0.1601562,1.5527344,0.1987305,3.2832031,0.2163086,5.234375
		c-0.0195312,0.4716797-0.2607422,1.8496094-0.4370117,2.8564453c-1.0546875,6.0263672-3.8569336,22.0361328,11.0600586,27.2324219
		l3.8300781,1.3339844l3.6772461-1.7099609c5.5341797-2.5751953,9.2939453-5.6005859,11.8930664-8.7431641
		c-0.5317383,5.5878906-0.8613281,18.3818359,13.7773438,22.7021484l5.1176758,1.5107422l4.1035156-3.4101562
		c5.065918-4.2089844,9.0146484-8.8857422,11.7304688-13.8466797c0.0024414,0.2431641,0.0170898,2.0166016,0.0170898,2.0166016
		c-0.0375977,0.3398438-0.1513672,1.0664062-0.2368164,1.6113281c-0.7924805,5.0683594-2.2680664,14.5039062,3.668457,21.4697266
		c2.4155273,2.8349609,6.9550781,6.2197266,14.8657227,6.2519531l3.4487305,0.0136719l2.7246094-2.1152344
		c12.6538086-9.8242188,11.1552734-23.5273438,10.2597656-31.7148438c-0.0820312-0.75-0.1625977-1.484375-0.2299805-2.1982422
		c-0.0610352-0.640625-0.1625977-1.2724609-0.2958984-1.90625c1.0356445,0.4335938,2.1723633,0.7880859,3.4223633,1.0341797
		c1.5458984,0.3056641,3.0751953,0.4599609,4.5454102,0.4599609c0.0004883,0,0.0004883,0,0.0009766,0
		c6.4394531,0,17.6601562-2.8701172,20.4648438-22.0927734c0.0351562-0.2363281,0.0625-0.4375,0.0820312-0.5537109
		c1.8798828-9.7021484,2.6884766-19.0771484,2.4716797-28.6689453c-0.0019531-0.1015625-0.0048828-0.2041016-0.0087891-0.3066406
		c0.7490234-2.4287109,1.2636719-4.7792969,1.5410156-7.0361328
		C458.9404297,538.5566406,468.9638672,512.2792969,468.9638672,484.6699219z"/>
	<g>
		<path class="st1" d="M391.8823242,388.8400574V104.709053c0-19.2652817-15.6172791-34.8826675-34.8822632-34.8826675h-0.0001221
			c-19.2649841,0-34.8823547,15.6173859-34.8823547,34.8826675v284.131012
			c-39.1335754,14.2472839-67.0814667,51.7762756-67.0814667,95.8365784
			c0,56.3130493,45.6507721,101.9633789,101.9638214,101.9633789c56.3131714,0,101.9639587-45.6503296,101.9639587-101.9633789
			C458.9638977,440.616333,431.0159912,403.0873413,391.8823242,388.8400574z"/>
		<path class="st4" d="M450.9546814,492.6954346c0,51.7927246-42.1459961,93.9390869-93.9549255,93.9390869
			c-51.8090515,0-93.9549255-42.1463623-93.9549255-93.9390869c0-39.3576355,24.8388367-74.8529968,61.8086548-88.3138733
			l5.2722168-1.9233093V112.7254944c0-14.8231812,12.0508728-26.874054,26.874054-26.874054
			s26.8739624,12.0508728,26.8739624,26.874054V402.458252l5.2723083,1.9233093
			C426.1158447,417.8424377,450.9546814,453.3377991,450.9546814,492.6954346z"/>
		<path class="st38" d="M426.0080566,556.3709106c15.4755249-16.7529297,24.9465942-39.1289062,24.9465942-63.6753235
			c0-39.3579102-24.8388062-74.8530273-61.8086548-88.3139648l-5.2722778-1.9233398V388.037384h-53.7480469v14.4208984
			l-5.2721558,1.9233398c-36.9698486,13.4609375-61.8086548,48.9560547-61.8086548,88.3139648
			c0,22.8745422,8.2248535,43.8638,21.8683472,60.1753235c7.4854736,8.9492188,16.6018677,16.4882812,26.8897095,22.1572266
			c0.6621094,0.3647461,1.3289185,0.7216797,2.0005493,1.0708008c12.9401245,6.7270508,27.6307983,10.5356445,43.1962891,10.5356445
			C384.2544556,586.6345825,408.8306274,574.9671021,426.0080566,556.3709106z"/>
		<path class="st4" d="M348.5147095,455.9378662l-11.4923401-11.4923401c-4.6669006-4.6669006-4.6669006-12.3036499,0-16.9705505
			l11.4923401-11.4923706c4.6669006-4.6669006,12.3036804-4.6669006,16.9705811,0l11.4923401,11.4923706
			c4.6669006,4.6669006,4.6669006,12.3036499,0,16.9705505l-11.4923401,11.4923401
			C360.8183899,460.6047974,353.1816101,460.6047974,348.5147095,455.9378662z"/>
		<path class="st1" d="M350.2423401,456.6505127l-9.1524658-9.1524658c-3.7167053-3.7167053-3.7167053-9.798584,0-13.5152893
			l9.1524658-9.1524658c3.7167053-3.7167053,9.7986145-3.7167053,13.5153198,0l9.1524658,9.1524658
			c3.7167053,3.7167053,3.7167053,9.798584,0,13.5152893l-9.1524658,9.1524658
			C360.0409546,460.3672485,353.9590454,460.3672485,350.2423401,456.6505127z"/>
		<path class="st5" d="M410.1911926,525.4437256c-28.2957458,2.4674683-30.2960205,4.4677734-32.7634888,32.7635498
			c-2.4674988-28.2957764-4.4677734-30.2960815-32.7635193-32.7635498
			c28.2957458-2.4674683,30.2960205-4.4677124,32.7635193-32.7634888
			C379.8951721,520.9760132,381.8954468,522.9762573,410.1911926,525.4437256z"/>
		<g>
			<path class="st32" d="M351.8794556,115.650589c11.1627502,0,22.325531,0,33.4882812,0c1.4477844,0,1.4501648-2.25,0-2.25
				c-11.1627502,0-22.325531,0-33.4882812,0C350.4316711,113.400589,350.4292908,115.650589,351.8794556,115.650589
				L351.8794556,115.650589z"/>
		</g>
		<g>
			<path class="st32" d="M351.8794556,177.2541809c11.1627502,0,22.325531,0,33.4882812,0c1.4477844,0,1.4501648-2.25,0-2.25
				c-11.1627502,0-22.325531,0-33.4882812,0C350.4316711,175.0041809,350.4292908,177.2541809,351.8794556,177.2541809
				L351.8794556,177.2541809z"/>
		</g>
		<g>
			<path class="st32" d="M351.8794556,238.8577576c11.1627502,0,22.325531,0,33.4882812,0c1.4477844,0,1.4501648-2.25,0-2.25
				c-11.1627502,0-22.325531,0-33.4882812,0C350.4316711,236.6077576,350.4292908,238.8577576,351.8794556,238.8577576
				L351.8794556,238.8577576z"/>
		</g>
		<g>
			<path class="st32" d="M367.879425,123.3510361c5.8294373,0,11.6588745,0,17.4883118,0c1.4477844,0,1.4501648-2.25,0-2.25
				c-5.8294373,0-11.6588745,0-17.4883118,0C366.4316406,121.1010361,366.4292603,123.3510361,367.879425,123.3510361
				L367.879425,123.3510361z"/>
		</g>
		<g>
			<path class="st32" d="M367.879425,131.0514832c5.8294373,0,11.6588745,0,17.4883118,0c1.4477844,0,1.4501648-2.25,0-2.25
				c-5.8294373,0-11.6588745,0-17.4883118,0C366.4316406,128.8014832,366.4292603,131.0514832,367.879425,131.0514832
				L367.879425,131.0514832z"/>
		</g>
		<g>
			<path class="st32" d="M367.879425,138.7519379c5.8294373,0,11.6588745,0,17.4883118,0c1.4477844,0,1.4501648-2.25,0-2.25
				c-5.8294373,0-11.6588745,0-17.4883118,0C366.4316406,136.5019379,366.4292603,138.7519379,367.879425,138.7519379
				L367.879425,138.7519379z"/>
		</g>
		<g>
			<path class="st32" d="M367.879425,146.4523773c5.8294373,0,11.6588745,0,17.4883118,0c1.4477844,0,1.4501648-2.25,0-2.25
				c-5.8294373,0-11.6588745,0-17.4883118,0C366.4316406,144.2023773,366.4292603,146.4523773,367.879425,146.4523773
				L367.879425,146.4523773z"/>
		</g>
		<g>
			<path class="st32" d="M367.879425,154.152832c5.8294373,0,11.6588745,0,17.4883118,0c1.4477844,0,1.4501648-2.25,0-2.25
				c-5.8294373,0-11.6588745,0-17.4883118,0C366.4316406,151.902832,366.4292603,154.152832,367.879425,154.152832
				L367.879425,154.152832z"/>
		</g>
		<g>
			<path class="st32" d="M367.879425,161.8532715c5.8294373,0,11.6588745,0,17.4883118,0c1.4477844,0,1.4501648-2.25,0-2.25
				c-5.8294373,0-11.6588745,0-17.4883118,0C366.4316406,159.6032715,366.4292603,161.8532715,367.879425,161.8532715
				L367.879425,161.8532715z"/>
		</g>
		<g>
			<path class="st32" d="M367.879425,169.5537262c5.8294373,0,11.6588745,0,17.4883118,0c1.4477844,0,1.4501648-2.25,0-2.25
				c-5.8294373,0-11.6588745,0-17.4883118,0C366.4316406,167.3037262,366.4292603,169.5537262,367.879425,169.5537262
				L367.879425,169.5537262z"/>
		</g>
		<g>
			<path class="st32" d="M351.8794556,300.4613342c11.1627502,0,22.325531,0,33.4882812,0c1.4477844,0,1.4501648-2.25,0-2.25
				c-11.1627502,0-22.325531,0-33.4882812,0C350.4316711,298.2113342,350.4292908,300.4613342,351.8794556,300.4613342
				L351.8794556,300.4613342z"/>
		</g>
		<g>
			<path class="st32" d="M367.879425,246.5582123c5.8294373,0,11.6588745,0,17.4883118,0c1.4477844,0,1.4501648-2.25,0-2.25
				c-5.8294373,0-11.6588745,0-17.4883118,0C366.4316406,244.3082123,366.4292603,246.5582123,367.879425,246.5582123
				L367.879425,246.5582123z"/>
		</g>
		<g>
			<path class="st32" d="M367.879425,254.2586517c5.8294373,0,11.6588745,0,17.4883118,0c1.4477844,0,1.4501648-2.25,0-2.25
				c-5.8294373,0-11.6588745,0-17.4883118,0C366.4316406,252.0086517,366.4292603,254.2586517,367.879425,254.2586517
				L367.879425,254.2586517z"/>
		</g>
		<g>
			<path class="st32" d="M367.879425,261.9591064c5.8294373,0,11.6588745,0,17.4883118,0c1.4477844,0,1.4501648-2.25,0-2.25
				c-5.8294373,0-11.6588745,0-17.4883118,0C366.4316406,259.7091064,366.4292603,261.9591064,367.879425,261.9591064
				L367.879425,261.9591064z"/>
		</g>
		<g>
			<path class="st32" d="M367.879425,269.6595459c5.8294373,0,11.6588745,0,17.4883118,0c1.4477844,0,1.4501648-2.25,0-2.25
				c-5.8294373,0-11.6588745,0-17.4883118,0C366.4316406,267.4095459,366.4292603,269.6595459,367.879425,269.6595459
				L367.879425,269.6595459z"/>
		</g>
		<g>
			<path class="st32" d="M367.879425,277.3599854c5.8294373,0,11.6588745,0,17.4883118,0c1.4477844,0,1.4501648-2.25,0-2.25
				c-5.8294373,0-11.6588745,0-17.4883118,0C366.4316406,275.1099854,366.4292603,277.3599854,367.879425,277.3599854
				L367.879425,277.3599854z"/>
		</g>
		<g>
			<path class="st32" d="M367.879425,285.0604553c5.8294373,0,11.6588745,0,17.4883118,0c1.4477844,0,1.4501648-2.25,0-2.25
				c-5.8294373,0-11.6588745,0-17.4883118,0C366.4316406,282.8104553,366.4292603,285.0604553,367.879425,285.0604553
				L367.879425,285.0604553z"/>
		</g>
		<g>
			<path class="st32" d="M367.879425,292.7608948c5.8294373,0,11.6588745,0,17.4883118,0c1.4477844,0,1.4501648-2.25,0-2.25
				c-5.8294373,0-11.6588745,0-17.4883118,0C366.4316406,290.5108948,366.4292603,292.7608948,367.879425,292.7608948
				L367.879425,292.7608948z"/>
		</g>
		<g>
			<path class="st32" d="M367.879425,184.9546204c5.8294373,0,11.6588745,0,17.4883118,0c1.4477844,0,1.4501648-2.25,0-2.25
				c-5.8294373,0-11.6588745,0-17.4883118,0C366.4316406,182.7046204,366.4292603,184.9546204,367.879425,184.9546204
				L367.879425,184.9546204z"/>
		</g>
		<g>
			<path class="st32" d="M367.879425,192.6550751c5.8294373,0,11.6588745,0,17.4883118,0c1.4477844,0,1.4501648-2.25,0-2.25
				c-5.8294373,0-11.6588745,0-17.4883118,0C366.4316406,190.4050751,366.4292603,192.6550751,367.879425,192.6550751
				L367.879425,192.6550751z"/>
		</g>
		<g>
			<path class="st32" d="M367.879425,200.3555145c5.8294373,0,11.6588745,0,17.4883118,0c1.4477844,0,1.4501648-2.25,0-2.25
				c-5.8294373,0-11.6588745,0-17.4883118,0C366.4316406,198.1055145,366.4292603,200.3555145,367.879425,200.3555145
				L367.879425,200.3555145z"/>
		</g>
		<g>
			<path class="st32" d="M367.879425,208.0559692c5.8294373,0,11.6588745,0,17.4883118,0c1.4477844,0,1.4501648-2.25,0-2.25
				c-5.8294373,0-11.6588745,0-17.4883118,0C366.4316406,205.8059692,366.4292603,208.0559692,367.879425,208.0559692
				L367.879425,208.0559692z"/>
		</g>
		<g>
			<path class="st32" d="M367.879425,215.7564087c5.8294373,0,11.6588745,0,17.4883118,0c1.4477844,0,1.4501648-2.25,0-2.25
				c-5.8294373,0-11.6588745,0-17.4883118,0C366.4316406,213.5064087,366.4292603,215.7564087,367.879425,215.7564087
				L367.879425,215.7564087z"/>
		</g>
		<g>
			<path class="st32" d="M367.879425,223.4568634c5.8294373,0,11.6588745,0,17.4883118,0c1.4477844,0,1.4501648-2.25,0-2.25
				c-5.8294373,0-11.6588745,0-17.4883118,0C366.4316406,221.2068634,366.4292603,223.4568634,367.879425,223.4568634
				L367.879425,223.4568634z"/>
		</g>
		<g>
			<path class="st32" d="M367.879425,231.1573181c5.8294373,0,11.6588745,0,17.4883118,0c1.4477844,0,1.4501648-2.25,0-2.25
				c-5.8294373,0-11.6588745,0-17.4883118,0C366.4316406,228.9073181,366.4292603,231.1573181,367.879425,231.1573181
				L367.879425,231.1573181z"/>
		</g>
		<path class="st5" d="M368.1763916,179.9794006c-20.6724243,1.8026886-22.1337891,3.2640686-23.9364929,23.9364929
			c-1.8026733-20.6724243-3.2640686-22.1338043-23.9364929-23.9364929
			c20.6724243-1.8027039,22.1338196-3.2640686,23.9364929-23.9364929
			C346.0426025,176.715332,347.5039673,178.1766968,368.1763916,179.9794006z"/>
		<path class="st5" d="M316.7807312,492.6802368c-11.8573608,1.0339966-12.6955872,1.8722229-13.7295837,13.7295837
			c-1.0339966-11.8573608-1.8722229-12.6955872-13.7295837-13.7295837
			c11.8573608-1.0339966,12.6955872-1.8722229,13.7295837-13.7295837
			C304.085144,490.8080139,304.9233704,491.6462402,316.7807312,492.6802368z"/>
		<path class="st5" d="M379.338623,306.6369629c-11.8573608,1.0339966-12.6955872,1.8721924-13.7295837,13.7295837
			c-1.0339966-11.8573914-1.8722229-12.6955872-13.7295837-13.7295837
			c11.8573608-1.0339966,12.6955872-1.8722229,13.7295837-13.7296143
			C366.6430359,304.76474,367.4812622,305.6029663,379.338623,306.6369629z"/>
		<path class="st4" d="M428.9743042,564.9338989c4.5110474-12.5625,1.8827515-23.6494141-16.2592773-21.0263672
			c-9.9647827,1.4404297-9.7919312,4.1196289-13.8196411,11.3491211
			c-4.0584106,7.2851562-12.7764893,14.3051758-20.9754639,10.3837891c-3.3621826-1.6083984-5.6795654-4.871582-9.0279541-6.4794922
			c-3.9512329-1.8979492-8.3076782-1.6430664-12.5701904-1.6606445c-7.5794678-0.03125-12.7954102-0.9609375-19.0075073-5.6733398
			c-6.7307129-5.1064453-15.9909668-13.4335938-21.1963501-2.5297852c-1.9066772,3.9941406-0.87323,7.409668-5.4572144,7.2397461
			c-4.0623169-0.1503906-9.0408936-5.1162109-11.9741821-7.5751953c-4.6070557-3.8623047-13.2538452-13.581543-17.0619507-3.8486328
			c-1.4302979,3.6557617,0.3388672,9.4658203,3.2440186,14.4296875c0.1483765,4.9462891,0.947937,9.878418,4.0525513,14.5585938
			c1.0772095,1.6240234,4.4459839,7.7509766,8.1572266,8.2998047c7.3887329,1.09375,9.7061768-5.0009766,14.2646484-7.1572266
			c1.1569824,0.6469727,2.267334,1.2998047,3.3545532,1.9487305c4.260498,5.590332,4.4141846,11.859375,4.4660645,17.6958008
			c0.0444946,5.0048828-5.1135254,17.5107422,3.9135742,20.6552734
			c16.8877563-7.8554688,9.2529297-19.0576172,16.5582886-28.0693359c4.2032471,8.046875,8.8035889,15.7861328,9.7990112,24.1796875
			c0.5661621,4.7734375-3.8464355,14.3125,6.3615723,17.3251953c6.9528809-5.7773438,11.0288696-12.2255859,12.1503296-18.8154297
			c0.7648315-4.4941406-1.682373-9.3867188,1.7469482-13.6650391c14.9186401,6.5166016,14.1369629,19.8554688,14.2418823,28.4599609
			c0.0474243,3.8828125-5.3344727,19.1591797,8.336853,19.2148438c9.1192017-7.0800781,6.9549561-17.1943359,6.2072144-25.0703125
			c-0.463623-4.8847656-9.4472046-19.8017578,2.5502319-22.9423828c6.2456055,2.3525391,6.1451416,10.0683594,12.4667358,11.3154297
			c12.0426636,2.375,12.8198853-11.5917969,13.3407593-14.2783203c1.7141724-8.84375,2.4931641-17.6376953,2.2915649-26.5322266
			C429.1153564,566.0828247,429.0546265,565.5071411,428.9743042,564.9338989z"/>
		<path class="st39" d="M294.6022644,559.2561646c29.4407959,16.1091309,64.2514038,20.9196777,96.2457275,10.3736572
			c10.553772-3.3399658,20.6971436-8.1422119,30.5099792-14.1226807
			c-7.6983032,8.5732422-17.5478821,15.2973633-28.2852478,20.0068359
			C361.024353,589.8729248,319.8865051,583.9820557,294.6022644,559.2561646L294.6022644,559.2561646z"/>
	</g>
</g>
</svg>
