<?xml version="1.0" encoding="utf-8"?>
<!-- Generator: Adobe Illustrator 17.0.0, SVG Export Plug-In . SVG Version: 6.00 Build 0)  -->
<!DOCTYPE svg PUBLIC "-//W3C//DTD SVG 1.1//EN" "http://www.w3.org/Graphics/SVG/1.1/DTD/svg11.dtd">
<svg version="1.1" xmlns="http://www.w3.org/2000/svg" xmlns:xlink="http://www.w3.org/1999/xlink" x="0px" y="0px" width="1800px"
	 height="2400px" viewBox="0 0 1800 2400" enable-background="new 0 0 1800 2400" xml:space="preserve">
<g id="hot_x5F_1">
	<radialGradient id="SVGID_1_" cx="943.2" cy="643.2" r="1913.1392" gradientUnits="userSpaceOnUse">
		<stop  offset="0" style="stop-color:#EBFF55"/>
		<stop  offset="0.6989" style="stop-color:#D05000"/>
		<stop  offset="1" style="stop-color:#878787"/>
	</radialGradient>
	<rect fill="url(#SVGID_1_)" width="1800" height="2400"/>
</g>
<g id="hot_x5F_2">
	<path fill="#A99B9E" stroke="#A99B9E" stroke-miterlimit="10" d="M703.459,78.214c-24.703-4.325-47.812,1.499-51.659,13.147
		L13.25,2024.654v264.71L689.956,94.415c2.267-7.353,11.952-12.44,24.821-14.22L703.459,78.214z"/>
	<linearGradient id="SVGID_2_" gradientUnits="userSpaceOnUse" x1="599.3429" y1="73.4923" x2="599.3429" y2="2380.314">
		<stop  offset="0" style="stop-color:#EBFF55"/>
		<stop  offset="1" style="stop-color:#D05000"/>
	</linearGradient>
	<path fill="url(#SVGID_2_)" stroke="#A99B9E" stroke-miterlimit="10" d="M1141.341,146.921L730.043,74.909
		c-24.691-4.323-47.651,1.568-51.328,13.297L13.25,2211.131v169.183h1111.069l61.114-2203.39
		C1185.773,164.612,1166.031,151.244,1141.341,146.921z"/>
	<ellipse fill="#E0D9D9" cx="603.888" cy="2062.044" rx="105.197" ry="122.298"/>
	<path fill="#E0D9D9" d="M937.419,287.961c0,0,0-0.001,0-0.001l14.284-94.392c0.131-0.864-1.093-1.796-2.733-2.083l-2.156-0.377
		l0.347-2.254c0.134-0.868-0.952-1.781-2.425-2.039l-18.448-3.23c1.473,0.258,2.551,1.169,2.409,2.036l-0.369,2.25l-31.326-5.485
		c-1.64-0.287-3.097,0.176-3.254,1.035l-17.183,93.885c0,0,0,0.001-0.001,0.001L562.053,1995.772l-24.409-4.274L883.395,170.364
		c0.23-1.212,2.304-1.862,4.633-1.455l73.784,12.918c2.328,0.408,4.073,1.727,3.897,2.948L700.369,2019.989l-24.408-4.273
		L937.419,287.961z"/>
	<g>
		<polygon fill="#FFFFFF" points="854.638,191.063 777.642,177.583 778.19,175.352 855.094,188.817 		"/>
		<g>
			<polygon fill="#FFFFFF" points="1055.683,226.263 978.687,212.783 978.995,210.51 1055.9,223.975 			"/>
			<polygon fill="#FFFFFF" points="1045.079,338.361 963.588,324.093 963.933,321.547 1045.322,335.797 			"/>
			<polygon fill="#FFFFFF" points="1033.16,464.359 946.616,449.206 947.005,446.335 1033.433,461.468 			"/>
			<polygon fill="#FFFFFF" points="1019.665,607.013 927.401,590.859 927.843,587.597 1019.976,603.728 			"/>
			<polygon fill="#FFFFFF" points="1004.26,769.861 905.465,752.564 905.973,748.824 1004.616,766.095 			"/>
			<polygon fill="#FFFFFF" points="986.508,957.517 880.188,938.902 880.776,934.571 986.921,953.156 			"/>
			<polygon fill="#FFFFFF" points="965.829,1176.118 850.743,1155.968 851.432,1150.894 966.312,1171.008 			"/>
			<polygon fill="#FFFFFF" points="941.433,1434.004 816.006,1412.044 816.824,1406.017 942.007,1427.935 			"/>
			<polygon fill="#FFFFFF" points="912.221,1742.812 774.41,1718.684 775.397,1711.41 912.914,1735.487 			"/>
			<polygon fill="#FFFFFF" points="876.608,2119.277 723.701,2092.505 724.916,2083.553 877.461,2110.261 			"/>
		</g>
		<polygon fill="#FFFFFF" points="829.351,315.611 747.267,301.24 747.89,298.705 829.87,313.058 		"/>
		<polygon fill="#FFFFFF" points="800.486,457.783 712.595,442.395 713.309,439.489 801.081,454.856 		"/>
		<polygon fill="#FFFFFF" points="767.226,621.605 672.643,605.045 673.469,601.68 767.914,618.216 		"/>
		<polygon fill="#FFFFFF" points="728.484,812.43 626.105,794.505 627.074,790.563 729.29,808.459 		"/>
		<polygon fill="#FFFFFF" points="682.782,1037.533 571.208,1017.998 572.358,1013.317 683.739,1032.818 		"/>
		<polygon fill="#FFFFFF" points="628.06,1307.062 505.476,1285.6 506.864,1279.949 629.216,1301.371 		"/>
		<polygon fill="#FFFFFF" points="561.356,1635.609 425.352,1611.797 427.06,1604.844 562.778,1628.606 		"/>
		<polygon fill="#FFFFFF" points="478.251,2044.943 325.525,2018.203 327.678,2009.436 480.043,2036.113 		"/>
		<polygon fill="#FFFFFF" points="852.802,200.104 814.12,193.331 814.626,191.071 853.263,197.836 		"/>
		<g>
			<polygon fill="#FFFFFF" points="1019.382,238.722 980.513,231.917 980.822,229.599 1019.644,236.396 			"/>
			<polygon fill="#FFFFFF" points="1017.424,256.082 978.206,249.215 978.521,246.856 1017.691,253.714 			"/>
			<polygon fill="#FFFFFF" points="1015.431,273.756 975.857,266.827 976.178,264.425 1015.703,271.345 			"/>
			<polygon fill="#FFFFFF" points="1013.401,291.754 973.466,284.762 973.792,282.315 1013.678,289.299 			"/>
			<polygon fill="#FFFFFF" points="1011.334,310.084 971.03,303.027 971.362,300.536 1011.616,307.583 			"/>
		</g>
		<g>
			<polygon fill="#FFFFFF" points="1006.496,352.988 965.329,345.78 965.675,343.181 1006.79,350.379 			"/>
			<polygon fill="#FFFFFF" points="1004.299,372.471 962.74,365.195 963.093,362.546 1004.599,369.813 			"/>
			<polygon fill="#FFFFFF" points="1002.059,392.33 960.101,384.983 960.461,382.283 1002.365,389.62 			"/>
			<polygon fill="#FFFFFF" points="999.776,412.573 957.411,405.155 957.778,402.403 1000.088,409.81 			"/>
			<polygon fill="#FFFFFF" points="997.449,433.213 954.668,425.723 955.042,422.916 997.766,430.396 			"/>
		</g>
		<g>
			<polygon fill="#FFFFFF" points="991.99,481.615 948.236,473.955 948.628,471.018 992.323,478.669 			"/>
			<polygon fill="#FFFFFF" points="989.507,503.638 945.309,495.9 945.709,492.904 989.846,500.631 			"/>
			<polygon fill="#FFFFFF" points="986.973,526.111 942.323,518.293 942.731,515.236 987.319,523.042 			"/>
			<polygon fill="#FFFFFF" points="984.386,549.048 939.275,541.15 939.691,538.029 984.739,545.916 			"/>
			<polygon fill="#FFFFFF" points="981.745,572.464 936.163,564.484 936.588,561.297 982.106,569.267 			"/>
		</g>
		<g>
			<polygon fill="#FFFFFF" points="975.539,627.493 928.851,619.319 929.297,615.976 975.918,624.139 			"/>
			<polygon fill="#FFFFFF" points="972.71,652.585 925.516,644.323 925.972,640.907 973.096,649.158 			"/>
			<polygon fill="#FFFFFF" points="969.818,678.226 922.109,669.873 922.575,666.382 970.213,674.723 			"/>
			<polygon fill="#FFFFFF" points="966.863,704.433 918.627,695.988 919.103,692.42 967.266,700.852 			"/>
			<polygon fill="#FFFFFF" points="963.841,731.226 915.066,722.686 915.553,719.038 964.254,727.565 			"/>
		</g>
		<g>
			<polygon fill="#FFFFFF" points="957.158,790.488 907.191,781.74 907.702,777.911 957.591,786.646 			"/>
			<polygon fill="#FFFFFF" points="953.915,819.249 903.369,810.4 903.892,806.482 954.358,815.318 			"/>
			<polygon fill="#FFFFFF" points="950.595,848.685 899.458,839.731 899.993,835.721 951.049,844.661 			"/>
			<polygon fill="#FFFFFF" points="947.197,878.818 895.454,869.758 896.001,865.653 947.662,874.698 			"/>
			<polygon fill="#FFFFFF" points="943.717,909.673 891.353,900.505 891.914,896.301 944.193,905.454 			"/>
		</g>
		<g>
			<polygon fill="#FFFFFF" points="934.993,987.033 881.073,977.593 881.668,973.135 935.498,982.56 			"/>
			<polygon fill="#FFFFFF" points="931.213,1020.556 876.619,1010.998 877.228,1006.428 931.73,1015.97 			"/>
			<polygon fill="#FFFFFF" points="927.337,1054.928 872.051,1045.249 872.676,1040.563 927.867,1050.226 			"/>
			<polygon fill="#FFFFFF" points="923.361,1090.182 867.366,1080.378 868.007,1075.571 923.905,1085.358 			"/>
			<polygon fill="#FFFFFF" points="919.282,1126.352 862.56,1116.421 863.218,1111.488 919.84,1121.402 			"/>
		</g>
		<g>
			<polygon fill="#FFFFFF" points="909.615,1212.075 851.169,1201.842 851.867,1196.605 910.207,1206.82 			"/>
			<polygon fill="#FFFFFF" points="905.168,1251.504 845.929,1241.132 846.646,1235.752 905.777,1246.105 			"/>
			<polygon fill="#FFFFFF" points="900.599,1292.017 840.545,1281.503 841.283,1275.974 901.225,1286.469 			"/>
			<polygon fill="#FFFFFF" points="895.903,1333.661 835.012,1323 835.77,1317.316 896.546,1327.957 			"/>
			<polygon fill="#FFFFFF" points="891.074,1376.483 829.321,1365.671 830.101,1359.825 891.736,1370.616 			"/>
		</g>
		<g>
			<polygon fill="#FFFFFF" points="879.585,1478.361 815.783,1467.19 816.615,1460.951 880.291,1472.099 			"/>
			<polygon fill="#FFFFFF" points="874.28,1525.406 809.532,1514.069 810.388,1507.643 875.007,1518.957 			"/>
			<polygon fill="#FFFFFF" points="868.815,1573.866 803.092,1562.359 803.975,1555.739 869.564,1567.223 			"/>
			<polygon fill="#FFFFFF" points="863.183,1623.809 796.455,1612.126 797.365,1605.302 863.955,1616.961 			"/>
			<polygon fill="#FFFFFF" points="857.376,1675.302 789.613,1663.437 790.551,1656.4 858.172,1668.239 			"/>
		</g>
		<g>
			<polygon fill="#FFFFFF" points="844.352,1790.786 774.266,1778.515 775.27,1770.988 845.204,1783.232 			"/>
			<polygon fill="#FFFFFF" points="837.941,1847.637 766.712,1835.166 767.749,1827.391 838.821,1839.834 			"/>
			<polygon fill="#FFFFFF" points="831.317,1906.373 758.907,1893.695 759.978,1885.661 832.226,1898.31 			"/>
			<polygon fill="#FFFFFF" points="824.47,1967.091 750.838,1954.199 751.946,1945.892 825.41,1958.754 			"/>
			<polygon fill="#FFFFFF" points="817.388,2029.892 742.493,2016.779 743.639,2008.184 818.36,2021.267 			"/>
		</g>
		<polygon fill="#FFFFFF" points="850.612,210.889 811.71,204.078 812.222,201.792 851.078,208.595 		"/>
		<polygon fill="#FFFFFF" points="848.398,221.798 809.272,214.948 809.79,212.636 848.869,219.478 		"/>
		<polygon fill="#FFFFFF" points="846.157,232.833 806.806,225.943 807.331,223.604 846.634,230.485 		"/>
		<polygon fill="#FFFFFF" points="843.891,243.995 804.312,237.065 804.843,234.699 844.373,241.62 		"/>
		<polygon fill="#FFFFFF" points="841.598,255.289 801.788,248.319 802.325,245.925 842.086,252.886 		"/>
		<polygon fill="#FFFFFF" points="839.279,266.714 799.236,259.703 799.779,257.281 839.772,264.283 		"/>
		<polygon fill="#FFFFFF" points="836.932,278.273 796.653,271.221 797.202,268.77 837.431,275.814 		"/>
		<polygon fill="#FFFFFF" points="834.557,289.97 794.039,282.876 794.595,280.396 835.062,287.481 		"/>
		<polygon fill="#FFFFFF" points="832.154,301.806 791.394,294.67 791.957,292.16 832.665,299.288 		"/>
		<g>
			<polygon fill="#FFFFFF" points="826.998,327.199 785.72,319.972 786.297,317.399 827.523,324.617 			"/>
			<polygon fill="#FFFFFF" points="824.504,339.486 782.975,332.214 783.559,329.609 825.035,336.871 			"/>
			<polygon fill="#FFFFFF" points="821.979,351.922 780.196,344.606 780.787,341.969 822.516,349.276 			"/>
			<polygon fill="#FFFFFF" points="819.423,364.511 777.383,357.151 777.981,354.481 819.967,361.832 			"/>
			<polygon fill="#FFFFFF" points="816.836,377.257 774.535,369.85 775.141,367.148 817.386,374.544 			"/>
			<polygon fill="#FFFFFF" points="814.215,390.162 771.651,382.71 772.264,379.973 814.773,387.416 			"/>
			<polygon fill="#FFFFFF" points="811.563,403.228 768.731,395.729 769.353,392.958 812.127,400.448 			"/>
			<polygon fill="#FFFFFF" points="808.876,416.459 765.775,408.913 766.404,406.107 809.448,413.643 			"/>
			<polygon fill="#FFFFFF" points="806.156,429.858 762.781,422.263 763.418,419.422 806.735,427.006 			"/>
			<polygon fill="#FFFFFF" points="803.401,443.428 759.748,435.785 760.394,432.907 803.987,440.54 			"/>
		</g>
		<g>
			<polygon fill="#FFFFFF" points="797.482,472.58 753.234,464.833 753.898,461.876 798.085,469.612 			"/>
			<polygon fill="#FFFFFF" points="794.615,486.703 750.079,478.906 750.75,475.91 795.225,483.697 			"/>
			<polygon fill="#FFFFFF" points="791.71,501.012 746.881,493.163 747.562,490.128 792.328,497.966 			"/>
			<polygon fill="#FFFFFF" points="788.766,515.51 743.642,507.609 744.331,504.534 789.393,512.424 			"/>
			<polygon fill="#FFFFFF" points="785.784,530.2 740.359,522.247 741.058,519.131 786.419,527.073 			"/>
			<polygon fill="#FFFFFF" points="782.761,545.089 737.032,537.083 737.74,533.925 783.405,541.92 			"/>
			<polygon fill="#FFFFFF" points="779.698,560.177 733.661,552.117 734.378,548.916 780.35,556.965 			"/>
			<polygon fill="#FFFFFF" points="776.593,575.47 730.244,567.355 730.971,564.11 777.254,572.214 			"/>
			<polygon fill="#FFFFFF" points="773.446,590.971 726.78,582.801 727.517,579.512 774.116,587.671 			"/>
			<polygon fill="#FFFFFF" points="770.255,606.686 723.268,598.459 724.016,595.125 770.935,603.34 			"/>
		</g>
		<g>
			<polygon fill="#FFFFFF" points="763.391,640.497 715.713,632.149 716.483,628.717 764.09,637.052 			"/>
			<polygon fill="#FFFFFF" points="760.06,656.903 712.047,648.497 712.828,645.016 760.769,653.409 			"/>
			<polygon fill="#FFFFFF" points="756.682,673.541 708.329,665.075 709.121,661.545 757.401,669.998 			"/>
			<polygon fill="#FFFFFF" points="753.256,690.416 704.559,681.89 705.362,678.309 753.985,686.823 			"/>
			<polygon fill="#FFFFFF" points="749.78,707.534 700.734,698.947 701.548,695.314 750.521,703.889 			"/>
			<polygon fill="#FFFFFF" points="746.254,724.901 696.853,716.252 697.679,712.567 747.005,721.203 			"/>
			<polygon fill="#FFFFFF" points="742.677,742.519 692.916,733.807 693.755,730.068 743.439,738.767 			"/>
			<polygon fill="#FFFFFF" points="739.048,760.396 688.922,751.62 689.772,747.826 739.821,756.589 			"/>
			<polygon fill="#FFFFFF" points="735.365,778.537 684.868,769.696 685.731,765.846 736.149,774.673 			"/>
			<polygon fill="#FFFFFF" points="731.627,796.949 680.754,788.042 681.63,784.134 732.423,793.027 			"/>
		</g>
		<g>
			<polygon fill="#FFFFFF" points="725.211,828.549 673.693,819.529 674.591,815.522 726.028,824.528 			"/>
			<polygon fill="#FFFFFF" points="721.32,847.716 669.41,838.627 670.322,834.559 722.149,843.633 			"/>
			<polygon fill="#FFFFFF" points="717.369,867.176 665.061,858.018 665.988,853.887 718.211,863.03 			"/>
			<polygon fill="#FFFFFF" points="713.357,886.936 660.646,877.708 661.587,873.513 714.212,882.726 			"/>
			<polygon fill="#FFFFFF" points="709.283,907.004 656.162,897.703 657.117,893.443 710.151,902.728 			"/>
			<polygon fill="#FFFFFF" points="705.144,927.388 651.607,918.015 652.577,913.688 706.026,923.046 			"/>
			<polygon fill="#FFFFFF" points="700.941,948.093 646.98,938.645 647.966,934.249 701.836,943.681 			"/>
			<polygon fill="#FFFFFF" points="696.67,969.127 642.28,959.604 643.282,955.138 697.58,964.644 			"/>
			<polygon fill="#FFFFFF" points="692.331,990.498 637.505,980.899 638.523,976.361 693.256,985.944 			"/>
			<polygon fill="#FFFFFF" points="687.922,1012.216 632.652,1002.539 633.686,997.927 688.862,1007.587 			"/>
		</g>
		<g>
			<polygon fill="#FFFFFF" points="678.399,1059.119 622.172,1049.274 623.242,1044.501 679.372,1054.329 			"/>
			<polygon fill="#FFFFFF" points="673.761,1081.965 617.066,1072.039 618.155,1067.187 674.75,1077.096 			"/>
			<polygon fill="#FFFFFF" points="669.045,1105.194 611.876,1095.185 612.982,1090.251 670.05,1100.243 			"/>
			<polygon fill="#FFFFFF" points="664.249,1128.816 606.598,1118.722 607.723,1113.704 665.271,1123.78 			"/>
			<polygon fill="#FFFFFF" points="659.372,1152.839 601.23,1142.659 602.374,1137.556 660.411,1147.717 			"/>
			<polygon fill="#FFFFFF" points="654.41,1177.277 595.769,1167.01 596.933,1161.819 655.468,1172.067 			"/>
			<polygon fill="#FFFFFF" points="649.363,1202.136 590.214,1191.78 591.399,1186.498 650.439,1196.835 			"/>
			<polygon fill="#FFFFFF" points="644.228,1227.429 584.563,1216.982 585.768,1211.608 645.323,1222.036 			"/>
			<polygon fill="#FFFFFF" points="639.002,1253.167 578.811,1242.629 580.038,1237.16 640.117,1247.679 			"/>
			<polygon fill="#FFFFFF" points="633.684,1279.364 572.958,1268.731 574.206,1263.165 634.818,1273.777 			"/>
		</g>
		<g>
			<polygon fill="#FFFFFF" points="622.168,1336.082 560.284,1325.247 561.58,1319.466 623.346,1330.281 			"/>
			<polygon fill="#FFFFFF" points="616.545,1363.78 554.095,1352.846 555.415,1346.959 617.744,1357.872 			"/>
			<polygon fill="#FFFFFF" points="610.818,1391.989 547.791,1380.954 549.136,1374.958 612.039,1385.972 			"/>
			<polygon fill="#FFFFFF" points="604.984,1420.724 541.371,1409.586 542.74,1403.478 606.228,1414.594 			"/>
			<polygon fill="#FFFFFF" points="599.04,1449.998 534.829,1438.756 536.225,1432.533 600.308,1443.753 			"/>
			<polygon fill="#FFFFFF" points="592.983,1479.831 528.163,1468.482 529.585,1462.141 594.276,1473.467 			"/>
			<polygon fill="#FFFFFF" points="586.811,1510.233 521.369,1498.775 522.819,1492.312 588.128,1503.747 			"/>
			<polygon fill="#FFFFFF" points="580.519,1541.223 514.445,1529.654 515.922,1523.065 581.862,1534.61 			"/>
			<polygon fill="#FFFFFF" points="574.105,1572.818 507.385,1561.136 508.891,1554.418 575.474,1566.076 			"/>
			<polygon fill="#FFFFFF" points="567.563,1605.036 500.186,1593.24 501.722,1586.389 568.959,1598.161 			"/>
		</g>
		<g>
			<polygon fill="#FFFFFF" points="554.813,1667.837 486.153,1655.816 487.748,1648.701 556.263,1660.697 			"/>
			<polygon fill="#FFFFFF" points="547.884,1701.967 478.526,1689.823 480.154,1682.564 549.363,1694.682 			"/>
			<polygon fill="#FFFFFF" points="540.813,1736.797 470.744,1724.529 472.405,1717.12 542.322,1729.361 			"/>
			<polygon fill="#FFFFFF" points="533.595,1772.349 462.799,1759.953 464.495,1752.39 535.136,1764.758 			"/>
			<polygon fill="#FFFFFF" points="526.226,1808.645 454.689,1796.12 456.421,1788.398 527.799,1800.895 			"/>
			<polygon fill="#FFFFFF" points="518.7,1845.713 446.406,1833.056 448.174,1825.17 520.307,1837.799 			"/>
			<polygon fill="#FFFFFF" points="511.014,1883.571 437.947,1870.778 439.753,1862.722 512.655,1875.486 			"/>
			<polygon fill="#FFFFFF" points="503.161,1922.247 429.304,1909.316 431.15,1901.085 504.838,1913.987 			"/>
			<polygon fill="#FFFFFF" points="495.137,1961.768 420.473,1948.696 422.36,1940.285 496.851,1953.327 			"/>
			<polygon fill="#FFFFFF" points="486.936,2002.163 411.447,1988.946 413.375,1980.349 488.688,1993.535 			"/>
		</g>
		<g>
			<path fill="#FFFFFF" d="M685.152,166.912l8.232,1.441l3.533-12.095l-8.12-1.422l0.329-1.108c6.622,1.159,13.528,1.56,13.528,1.56
				l-4.042,13.98l8.11,1.42l-0.32,1.126l-21.583-3.779L685.152,166.912z"/>
			<path fill="#FFFFFF" d="M710.749,171.558c15.183-2.318,18.625-3.412,19.794-6.558c0.777-2.849-0.734-4.181-3.953-4.744
				c-5.79-1.014-6.621,1.075-6.823,3.604c-3.352-0.587-4.927-1.675-4.527-3.097c0.539-1.915,4.584-2.726,11.381-1.536
				c6.261,1.096,10.53,3.104,9.637,6.416c-0.862,3.2-7.744,4.278-18.102,6.031l13.093,2.292c1.679,0.294,2.363-0.373,5.219-2.816
				l1.918,0.336c0,0-2.125,2.768-3.258,5.357l-24.651-4.316L710.749,171.558z"/>
			<path fill="#FFFFFF" d="M759.516,164.986c8.052,1.41,12.116,5.066,10.918,9.86c-1.196,4.788-6.877,7.436-14.998,6.014
				c-8.117-1.421-12.068-5.526-10.748-10.521C745.837,165.99,751.467,163.577,759.516,164.986z M767.206,174.51
				c0.854-3.396-0.915-7.012-7.48-8.161c-5.487-0.961-8.675,1.917-9.528,5.184c-0.905,3.465,0.574,7.197,6.1,8.165
				C762.911,180.855,766.388,177.761,767.206,174.51z"/>
		</g>
		<g>
			<path fill="#FFFFFF" d="M648.139,290.162l8.777,1.537l4.018-13.745l-8.654-1.515l0.374-1.259
				c7.057,1.236,14.434,1.609,14.434,1.609l-4.597,15.886l8.648,1.514l-0.365,1.28l-23.014-4.029L648.139,290.162z"/>
			<path fill="#FFFFFF" d="M694.477,281.291c8.582,1.503,12.808,5.587,11.355,11.019c-1.452,5.426-7.638,8.484-16.298,6.967
				c-8.655-1.515-12.745-6.112-11.148-11.773C679.776,282.578,685.9,279.789,694.477,281.291z M702.383,291.965
				c1.036-3.847-0.733-7.913-7.729-9.138c-5.848-1.024-9.369,2.263-10.401,5.963c-1.095,3.927,0.356,8.129,6.249,9.161
				C697.552,299.187,701.391,295.65,702.383,291.965z"/>
			<path fill="#FFFFFF" d="M728.52,287.251c8.582,1.503,12.863,5.597,11.503,11.045c-1.358,5.442-7.477,8.512-16.137,6.996
				c-8.655-1.515-12.809-6.123-11.309-11.801C713.883,288.549,719.943,285.75,728.52,287.251z M736.58,297.953
				c0.97-3.859-0.861-7.935-7.857-9.16c-5.848-1.024-9.305,2.274-10.273,5.986c-1.028,3.938,0.489,8.153,6.382,9.184
				C731.881,305.197,735.651,301.648,736.58,297.953z"/>
		</g>
		<g>
			<path fill="#FFFFFF" d="M634.883,424.367c-3.828-2.406-7.024-4.993-6.063-8.323c1.072-3.718,7.201-5.45,14.597-4.155
				c7.529,1.318,10.828,4.827,10.031,7.711c-0.91,3.293-5.492,4.349-9.82,5.239c4.342,2.666,8.415,5.542,7.386,9.277
				c-1.156,4.196-8.377,6.616-16.416,5.209c-6.391-1.119-12.653-4.445-11.359-8.921
				C624.398,426.391,629.685,425.237,634.883,424.367z M635.025,437.811c4.668,0.817,9.162-0.067,10.091-3.407
				c0.938-3.371-3.428-5.963-7.902-8.656c-4.95,1.001-9.446,1.913-10.366,5.115C625.866,434.28,630.218,436.969,635.025,437.811z
				 M649.865,419.141c0.768-2.764-2.318-4.98-6.865-5.776c-4.212-0.737-7.652,0.084-8.348,2.523c-0.79,2.766,2.626,5.093,6.6,7.477
				C645.282,422.509,649.184,421.59,649.865,419.141z"/>
			<path fill="#FFFFFF" d="M676.606,425.043c9.191,1.609,13.688,6.233,12.081,12.476c-1.606,6.239-8.273,9.826-17.553,8.202
				c-9.276-1.624-13.619-6.84-11.85-13.35C660.824,426.709,667.42,423.435,676.606,425.043z M684.99,437.17
				c1.146-4.422-0.715-9.057-8.208-10.369c-6.263-1.097-10.072,2.715-11.215,6.968c-1.213,4.515,0.304,9.314,6.619,10.42
				C679.74,445.512,683.892,441.406,684.99,437.17z"/>
		</g>
		<g>
			<path fill="#FFFFFF" d="M602.578,572.595c8.319,1.457,11.033,4.938,10.422,7.163c-0.484,1.764-2.806,2.674-7.126,1.918
				c1.694-3.889,1.84-6.631-4.224-7.693c-9.567-1.675-12.183,4.82-14.183,12.1c2.696-1.881,6.889-2.273,11.293-1.502
				c6.896,1.207,12.575,4.896,10.631,11.984c-2.085,7.604-10.154,9.028-17.776,7.693c-11.92-2.087-13.89-9.283-11.4-17.923
				C582.686,577.761,588.488,570.128,602.578,572.595z M592.141,602.657c6.358,1.113,8.99-1.652,10.56-7.314
				c1.536-5.539,0.495-8.173-4.865-9.112c-6.097-1.068-10.368,1.472-11.493,4.079C584.687,596.935,584.741,601.362,592.141,602.657z
				"/>
			<path fill="#FFFFFF" d="M637.125,587.147c9.891,1.732,14.66,7.011,12.808,14.248c-1.851,7.235-9.121,11.477-19.116,9.727
				c-9.99-1.749-14.58-7.721-12.539-15.269C620.053,589.288,627.239,585.416,637.125,587.147z M645.948,601.042
				c1.321-5.127-0.601-10.455-8.666-11.867c-6.741-1.18-10.928,3.275-12.245,8.206c-1.399,5.235,0.146,10.764,6.947,11.954
				C640.119,610.759,644.682,605.954,645.948,601.042z"/>
		</g>
		<g>
			<path fill="#FFFFFF" d="M518.101,781.55l31.617-18.692l3.006,0.526l-6.328,22.714l8.622,1.51l-0.837,3.044l-8.633-1.511
				l-2.695,9.674l-6.579-1.152l2.721-9.669l-21.663-3.793L518.101,781.55z M539.849,784.952l4.476-15.909l-21.882,12.861
				L539.849,784.952z"/>
			<path fill="#FFFFFF" d="M585.3,768.747c10.682,1.87,15.729,7.938,13.555,16.38c-2.175,8.444-10.159,13.487-20.962,11.596
				c-10.797-1.89-15.633-8.773-13.236-17.583C566.739,771.481,574.624,766.877,585.3,768.747z M594.541,784.774
				c1.551-5.981-0.41-12.148-9.12-13.673c-7.28-1.275-11.925,3.965-13.472,9.717c-1.643,6.11-0.099,12.52,7.251,13.807
				C587.993,796.165,593.055,790.506,594.541,784.774z"/>
		</g>
		<g>
			<path fill="#FFFFFF" d="M456.708,1009.909c22.947-6.447,28.238-9.084,30.537-15.708c1.663-5.96-0.33-8.542-4.986-9.357
				c-8.374-1.466-9.987,2.927-10.753,8.166c-4.854-0.85-6.983-2.925-6.126-5.901c1.153-4.004,7.284-6.109,17.112-4.388
				c9.053,1.585,15.001,5.262,13.09,12.19c-1.849,6.702-12.233,9.678-27.908,14.432l18.992,3.325c2.436,0.426,3.57-1.031,8.24-6.398
				l2.78,0.487c0,0-3.643,5.962-5.789,11.456l-35.777-6.264L456.708,1009.909z"/>
			<path fill="#FFFFFF" d="M530.063,991.05c11.643,2.039,17.027,9.142,14.455,19.181c-2.574,10.048-11.435,16.164-23.222,14.1
				c-11.782-2.063-16.911-10.146-14.074-20.63C509.687,994.594,518.426,989.013,530.063,991.05z M539.805,1009.885
				c1.835-7.114-0.169-14.386-9.664-16.048c-7.936-1.39-13.144,4.893-14.975,11.735c-1.945,7.27-0.408,14.847,7.611,16.251
				C532.371,1023.501,538.045,1016.706,539.805,1009.885z"/>
		</g>
		<path fill="#FFFFFF" d="M429.705,1253.604c12.805,2.242,18.488,10.689,15.252,22.819c-3.241,12.149-13.295,19.682-26.275,17.41
			c-12.973-2.271-18.331-11.918-14.765-24.595C407.012,1258.234,416.907,1251.363,429.705,1253.604z M439.751,1276.091
			c2.309-8.596,0.373-17.31-10.069-19.138c-8.729-1.528-14.743,6.124-17.043,14.391c-2.445,8.79-1.045,17.891,7.784,19.437
			C430.985,1292.63,437.536,1284.338,439.751,1276.091z"/>
		<g>
			<path fill="#FFFFFF" d="M258.774,1579.122l26.64,4.664l-2.196,7.56l-26.701-4.675L258.774,1579.122z"/>
			<path fill="#FFFFFF" d="M288.506,1609.298c28.754-10.565,35.465-14.694,38.757-24.573c2.459-8.859,0.185-12.574-5.489-13.568
				c-10.204-1.787-12.5,4.757-13.813,12.515c-5.919-1.036-8.395-4.001-7.127-8.426c1.704-5.95,9.4-9.321,21.374-7.225
				c11.029,1.931,18.097,7.085,15.272,17.378c-2.736,9.972-15.739,14.834-35.404,22.567l23.192,4.061
				c2.974,0.521,4.474-1.685,10.6-9.829l3.393,0.594c0,0-4.9,8.978-7.925,17.202l-43.705-7.652L288.506,1609.298z"/>
			<path fill="#FFFFFF" d="M380.16,1578.168c14.186,2.484,20.355,12.713,16.551,27.646c-3.814,14.97-15.13,24.425-29.531,21.904
				c-14.393-2.52-20.173-14.249-15.968-29.87C354.859,1584.301,365.982,1575.686,380.16,1578.168z M390.93,1605.515
				c2.715-10.584,0.716-21.219-10.855-23.245c-9.672-1.693-16.496,7.802-19.204,17.982c-2.882,10.83-1.493,21.969,8.302,23.684
				C380.89,1625.987,388.323,1615.676,390.93,1605.515z"/>
		</g>
		<g>
			<path fill="#FFFFFF" d="M141.379,1977.083l29.877,5.231l-2.758,9.512l-29.954-5.245L141.379,1977.083z"/>
			<path fill="#FFFFFF" d="M174.716,2009.684l51.817-44.846l4.474,0.783l-13.908,50.576l12.891,2.257l-1.849,6.813l-12.915-2.261
				l-5.969,21.705l-9.862-1.727l6.026-21.695l-32.408-5.674L174.716,2009.684z M207.312,2014.484l9.852-35.471l-35.876,30.914
				L207.312,2014.484z"/>
			<path fill="#FFFFFF" d="M279.553,1973.366c15.897,2.783,22.516,15.436,17.747,34.213c-4.786,18.845-17.863,30.965-34.031,28.134
				c-16.159-2.829-22.28-17.404-17.002-37.069C250.841,1981.609,263.664,1970.584,279.553,1973.366z M290.793,2007.337
				c3.405-13.313,1.497-26.571-11.471-28.841c-10.84-1.898-18.848,10.134-22.244,22.938c-3.616,13.632-2.427,27.564,8.567,29.489
				C278.799,2033.226,287.523,2020.126,290.793,2007.337z"/>
		</g>
		<g>
			<path fill="#FFFFFF" d="M1111.063,225.593l-11.622-2.035l-0.898,6.614l2.869,0.502c6.4,1.121,13.305,3.794,13.02,8.28
				c-0.225,3.533-4.741,5.701-13.231,4.215c-5.174-0.906-9.845-2.909-9.676-5.146c0.098-1.294,1.78-1.786,4.839-1.251
				c-0.153,0.465-0.246,0.875-0.275,1.263c-0.161,2.204,1.578,3.462,5.248,4.105c5.473,0.958,7.237-0.869,7.446-4.011
				c0.223-3.357-2.486-5.395-7.392-6.254l-7.723-1.352l1.441-9.561l16.015,2.804l1.094-1.065l2.319,0.406
				c0,0-0.797,2.084-0.885,3.457l-0.142,2.206l-2.505-0.439l0.168-2.557L1111.063,225.593z"/>
			<path fill="#FFFFFF" d="M1134.412,227.393c8.039,1.408,12.663,5.152,12.431,10.099c-0.231,4.94-5.201,7.7-13.308,6.281
				c-8.103-1.419-12.705-5.626-12.395-10.781C1121.411,228.504,1126.377,225.986,1134.412,227.393z M1143.665,237.163
				c0.17-3.504-2.234-7.22-8.787-8.367c-5.478-0.959-7.998,2.024-8.192,5.395c-0.205,3.576,1.941,7.413,7.458,8.379
				C1140.744,243.724,1143.502,240.517,1143.665,237.163z"/>
		</g>
		<g>
			<path fill="#FFFFFF" d="M1076.15,345.682l21.04-11.653l2.394,0.419l-1.012,14.904l6.854,1.2l-0.129,1.993l-6.86-1.201
				l-0.43,6.327l-5.225-0.915l0.446-6.324l-17.215-3.014L1076.15,345.682z M1093.369,348.441l0.735-10.433l-14.571,8.01
				L1093.369,348.441z"/>
			<path fill="#FFFFFF" d="M1125.472,338.764c8.507,1.489,13.387,5.631,13.12,11.171c-0.267,5.534-5.545,8.679-14.129,7.176
				c-8.579-1.502-13.434-6.165-13.077-11.94C1111.695,340.146,1116.969,337.276,1125.472,338.764z M1135.226,349.601
				c0.196-3.925-2.333-8.058-9.268-9.272c-5.797-1.015-8.482,2.351-8.704,6.126c-0.236,4.005,2.018,8.28,7.859,9.303
				C1132.102,356.981,1135.039,353.359,1135.226,349.601z"/>
		</g>
		<g>
			<path fill="#FFFFFF" d="M1061.2,472.99c-0.189,0.629-0.302,1.188-0.345,1.719c-0.23,2.823,1.782,4.254,6.111,5.012
				c7.37,1.29,8.46-1.341,8.698-4.53c0.325-4.358-1.898-6.599-10.507-8.106l-0.605-0.106l0.12-1.5l0.604,0.106
				c7.127,1.248,10.004,0.111,10.328-4.21c0.26-3.46-1.452-5.02-6.133-5.84c-4.28-0.749-5.786,0.206-6.013,3.019
				c-0.039,0.484-0.081,1.008,0.005,1.635c-3.89-0.681-5.677-2.056-5.546-3.625c0.211-2.528,4.901-3.495,11.854-2.277
				c7.284,1.275,12.422,4.165,12.123,8.311c-0.242,3.352-3.806,4.696-10.14,4.697l-0.006,0.081
				c6.009,1.628,10.672,4.007,10.369,8.243c-0.351,4.909-6.323,6.981-15.189,5.428c-6.431-1.126-11.44-3.624-11.211-6.365
				C1055.842,473.21,1057.221,472.293,1061.2,472.99z"/>
			<path fill="#FFFFFF" d="M1104.643,460.391c9.026,1.58,14.17,6.182,13.828,12.415c-0.342,6.228-5.987,9.825-15.1,8.229
				c-9.108-1.595-14.219-6.786-13.775-13.285C1089.983,462.096,1095.621,458.812,1104.643,460.391z M1114.898,472.467
				c0.25-4.415-2.395-9.034-9.755-10.323c-6.151-1.077-9.042,2.736-9.32,6.983c-0.295,4.507,2.055,9.291,8.256,10.376
				C1111.497,480.803,1114.659,476.696,1114.898,472.467z"/>
		</g>
		<g>
			<path fill="#FFFFFF" d="M1050.037,622.188c17.179-4.153,20.945-5.933,21.643-10.627c0.304-4.234-1.73-6.122-5.587-6.797
				c-6.937-1.215-7.467,1.901-7.174,5.636c-4.019-0.704-6.076-2.231-5.906-4.345c0.228-2.845,4.758-4.233,12.901-2.808
				c7.5,1.313,12.88,4.066,12.541,8.986c-0.328,4.758-8.1,6.68-19.777,9.767l15.707,2.75c2.014,0.353,2.669-0.665,5.474-4.407
				l2.3,0.403c0,0-1.886,4.187-2.658,8.065l-29.581-5.179L1050.037,622.188z"/>
			<path fill="#FFFFFF" d="M1105.327,610.148c9.647,1.689,15.147,6.879,14.787,14.007c-0.36,7.124-6.394,11.311-16.14,9.605
				c-9.741-1.705-15.205-7.575-14.729-15.01C1089.658,612.284,1095.685,608.46,1105.327,610.148z M1116.293,623.814
				c0.264-5.049-2.566-10.292-10.431-11.669c-6.574-1.151-9.664,3.243-9.961,8.099c-0.315,5.156,2.198,10.595,8.829,11.756
				C1112.663,633.388,1116.04,628.651,1116.293,623.814z"/>
		</g>
		<g>
			<path fill="#FFFFFF" d="M1051.599,785.32l10.562,1.849l1.457-20.64l-10.4-1.821l0.141-1.887
				c8.48,1.485,17.128,1.674,17.128,1.674l-1.619,23.849l10.407,1.822l-0.122,1.926l-27.699-4.85L1051.599,785.32z"/>
			<path fill="#FFFFFF" d="M1103.327,769.821c10.31,1.805,16.187,7.663,15.799,15.812c-0.388,8.149-6.844,13.016-17.267,11.191
				c-10.418-1.824-16.255-8.465-15.736-16.969C1086.574,772.463,1093.022,768.017,1103.327,769.821z M1115.04,785.294
				c0.285-5.773-2.737-11.727-11.144-13.199c-7.027-1.23-10.335,3.829-10.658,9.382c-0.343,5.897,2.338,12.083,9.43,13.325
				C1111.152,796.287,1114.767,790.827,1115.04,785.294z"/>
		</g>
		<path fill="#FFFFFF" d="M1071.135,950.265c11.082,1.94,17.333,8.614,16.806,18.02c-0.528,9.41-7.553,15.118-18.765,13.155
			c-11.206-1.962-17.404-9.548-16.721-19.368C1053.049,953.539,1060.06,948.326,1071.135,950.265z M1083.544,967.948
			c0.385-6.664-2.79-13.489-11.826-15.071c-7.553-1.322-11.189,4.556-11.617,10.966c-0.454,6.81,2.349,13.913,9.976,15.249
			C1079.204,980.69,1083.175,974.337,1083.544,967.948z"/>
		<g>
			<path fill="#FFFFFF" d="M997.915,1174.036l22.506,3.94l-0.422,5.594l-22.549-3.948L997.915,1174.036z"/>
			<path fill="#FFFFFF" d="M1027.648,1196.675l12.31,2.155l1.911-28.008l-12.104-2.119l0.185-2.557
				c9.868,1.728,19.945,1.698,19.945,1.698l-2.119,32.355l12.128,2.124l-0.16,2.617l-32.286-5.653L1027.648,1196.675z"/>
			<path fill="#FFFFFF" d="M1088.102,1173.962c11.997,2.1,18.806,9.833,18.305,20.884c-0.501,11.062-8.062,17.884-20.212,15.756
				c-12.144-2.126-18.9-10.942-18.222-22.486C1068.562,1178.091,1076.111,1171.862,1088.102,1173.962z M1101.648,1194.521
				c0.368-7.831-3.115-15.789-12.898-17.502c-8.177-1.432-12.072,5.525-12.492,13.057c-0.447,8.005,2.633,16.306,10.898,17.754
				C1097.043,1209.56,1101.295,1202.03,1101.648,1194.521z"/>
		</g>
		<g>
			<path fill="#FFFFFF" d="M975.801,1438.746l24.583,4.304l-0.504,6.676l-24.635-4.313L975.801,1438.746z"/>
			<path fill="#FFFFFF" d="M1008.016,1465.638c23.543-9.151,28.724-12.76,29.767-21.48c0.498-7.828-2.234-11.132-7.473-12.05
				c-9.42-1.649-10.212,4.131-9.897,10.99c-5.463-0.957-8.232-3.597-7.951-7.507c0.378-5.258,6.58-8.194,17.635-6.258
				c10.183,1.783,17.454,6.394,16.903,15.489c-0.534,8.807-11.17,13.022-27.177,19.729l21.391,3.745
				c2.743,0.48,3.656-1.46,7.552-8.621l3.13,0.548c0,0-2.648,7.907-3.771,15.156l-40.305-7.057L1008.016,1465.638z"/>
			<path fill="#FFFFFF" d="M1083.603,1438.701c13.097,2.293,20.525,11.391,19.966,24.579c-0.56,13.212-8.833,21.492-22.113,19.167
				c-13.273-2.324-20.64-12.73-19.871-26.518C1062.253,1443.964,1070.512,1436.409,1083.603,1438.701z M1098.37,1462.977
				c0.411-9.347-3.382-18.774-14.064-20.644c-8.929-1.563-13.197,6.798-13.672,15.788c-0.505,9.56,2.844,19.416,11.877,20.997
				C1093.318,1481.01,1097.975,1471.945,1098.37,1462.977z"/>
		</g>
		<g>
			<path fill="#FFFFFF" d="M955.487,1746.608l26.992,4.726l-0.596,8.052l-27.055-4.737L955.487,1746.608z"/>
			<path fill="#FFFFFF" d="M998.401,1782.831c-0.334,1.639-0.54,3.087-0.634,4.452c-0.5,7.264,2.676,10.595,9.618,11.81
				c11.819,2.069,13.677-4.857,14.186-13.055c0.693-11.179-2.786-16.52-16.545-18.929l-0.967-0.169l0.259-3.838l0.966,0.169
				c11.386,1.993,16.046-1.375,16.735-12.404c0.551-8.812-2.126-12.48-9.582-13.785c-6.818-1.194-9.269,1.472-9.758,8.633
				c-0.084,1.234-0.175,2.568-0.064,4.146c-6.205-1.086-9.006-4.279-8.723-8.275c0.456-6.434,8.008-9.646,19.078-7.708
				c11.597,2.03,19.706,8.499,19.077,19.057c-0.509,8.554-6.275,12.562-16.436,13.614l-0.013,0.206
				c9.579,3.148,16.973,8.435,16.332,19.296c-0.745,12.621-10.44,18.937-24.661,16.447c-10.316-1.806-18.273-7.369-17.771-14.426
				C989.767,1784.289,992.031,1781.716,998.401,1782.831z"/>
			<path fill="#FFFFFF" d="M1068.492,1743.598c14.372,2.516,22.487,13.328,21.813,29.223c-0.676,15.936-9.811,26.08-24.404,23.525
				c-14.585-2.554-22.625-14.966-21.697-31.597C1045.009,1750.329,1054.127,1741.083,1068.492,1743.598z M1084.593,1772.553
				c0.496-11.267-3.626-22.546-15.348-24.598c-9.799-1.716-14.534,8.429-15.108,19.266c-0.61,11.53,3.017,23.352,12.942,25.09
				C1078.952,1794.39,1084.116,1783.37,1084.593,1772.553z"/>
		</g>
		<g>
			<path fill="#FFFFFF" d="M923.538,2114.716l29.882,5.232l-0.735,9.87l-29.959-5.245L923.538,2114.716z"/>
			<path fill="#FFFFFF" d="M962.3,2148.276l40.907-46.775l4.475,0.783l-3.174,52.474l12.893,2.257l-0.404,7.069l-12.917-2.261
				l-1.362,22.52l-9.864-1.727l1.42-22.51l-32.414-5.675L962.3,2148.276z M994.719,2153.044l2.321-36.802l-28.349,32.245
				L994.719,2153.044z"/>
			<path fill="#FFFFFF" d="M1056.084,2110.003c15.9,2.784,24.848,15.848,24.05,35.328c-0.8,19.55-10.962,32.185-27.132,29.354
				c-16.162-2.83-25.018-17.888-23.909-38.291C1030.054,2118.72,1040.192,2107.221,1056.084,2110.003z M1073.808,2145.121
				c0.588-13.811-3.937-27.532-16.907-29.803c-10.842-1.898-16.13,10.615-16.814,23.899c-0.728,14.143,3.241,28.567,14.238,30.492
				C1067.48,2172.012,1073.243,2158.389,1073.808,2145.121z"/>
		</g>
		<path fill="#FFFFFF" d="M730.034,130.426l5.814,1.018l4.793-17.446l-5.758-1.008l0.293-1.054l30.635,5.364l-3.883,5.543
			l-1.748-0.306l0.547-3.698c0.169-1.11-0.157-1.259-1.438-1.483l-12.969-2.271l-2.201,8.109l9.349,1.637l0.693-2.605l2.449,0.429
			l-1.767,6.678l-2.458-0.43l0.775-2.914l-9.355-1.638l-2.199,8.103l6.342,1.11l-0.289,1.079l-17.923-3.138L730.034,130.426z"/>
		<path fill="#FFFFFF" d="M1090.935,173.793c4.534,0.794,7.68,1.989,9.695,3.449l1.675-1.182l2.269,0.397
			c0,0-1.313,2.691-1.407,4.001l-0.151,2.104l-2.623-0.459l0.091-1.25c0.18-2.465-3.479-4.829-9.41-5.867
			c-9.945-1.741-12.39,2.73-12.775,7.278c-0.421,4.968,1.613,9.799,11.482,11.527c6.167,1.08,9.822-0.067,11.399-2.978l2.505,0.657
			c-1.448,2.778-5.001,5.071-14.582,3.394c-11.932-2.089-17.595-7.56-17.047-13.786
			C1072.62,174.709,1079.367,171.768,1090.935,173.793z"/>
	</g>
	<rect x="806.689" y="278.124" fill="#FF5C66" width="0.001" height="1747.427"/>
	
		<rect x="-154.196" y="1136.538" transform="matrix(0.18 -0.9837 0.9837 0.18 -528.1562 1639.4858)" fill="#FF5C66" width="1747.011" height="0.001"/>
	<path fill="#FF5C66" d="M879.997,276.138c-1.721-0.301-3.256,0.221-3.431,1.167L562.053,1995.772l67.462,11.812L912.889,281.896
		L879.997,276.138z"/>
	<path fill="#FF5C66" d="M665.878,2013.951l266.42-1728.656l2.263,0.396c1.721,0.301,3,1.316,2.858,2.268L675.96,2015.716
		L665.878,2013.951z"/>
	<polygon fill="#FF5C66" points="932.298,285.295 665.878,2013.951 629.515,2007.584 912.889,281.896 	"/>
	<ellipse fill="#FF5C66" cx="603.888" cy="2062.044" rx="92.652" ry="107.715"/>
	<path opacity="0.7" fill="#E0D9D9" d="M668.442,1997.314l263.856-1712.02l-19.41-3.398L633.589,1982.774
		c-11.409-0.803,13.135,27.823,13.135,27.823c17.799,20.717,23.123,53.62,11.162,84.924c-8.758,22.919-24.992,40.307-43.688,49.38
		c29.4-0.738,58.646-22.528,71.582-56.383C699.032,2053.835,691.088,2017.171,668.442,1997.314z"/>
</g>
</svg>
